<?xml version="1.0" encoding="UTF-8" standalone="no"?>
<svg
   xmlns:osb="http://www.openswatchbook.org/uri/2009/osb"
   xmlns:dc="http://purl.org/dc/elements/1.1/"
   xmlns:cc="http://creativecommons.org/ns#"
   xmlns:rdf="http://www.w3.org/1999/02/22-rdf-syntax-ns#"
   xmlns:svg="http://www.w3.org/2000/svg"
   xmlns="http://www.w3.org/2000/svg"
   xmlns:xlink="http://www.w3.org/1999/xlink"
   xmlns:sodipodi="http://sodipodi.sourceforge.net/DTD/sodipodi-0.dtd"
   xmlns:inkscape="http://www.inkscape.org/namespaces/inkscape"
   width="2.7776in"
   height="2.5556in"
   viewBox="0 0 1000 928"
   id="svg2"
   version="1.1"
   inkscape:version="0.48.4 r9939"
   sodipodi:docname="blason.svg"
   enable-background="new">
  <metadata
     id="metadata9">
    <rdf:RDF>
      <cc:Work
         rdf:about="">
        <dc:format>image/svg+xml</dc:format>
        <dc:type
           rdf:resource="http://purl.org/dc/dcmitype/StillImage" />
      </cc:Work>
    </rdf:RDF>
  </metadata>
  <defs
     id="defs7">
    <linearGradient
       id="linearGradient5786">
      <stop
         style="stop-color:#000000;stop-opacity:1;"
         offset="0"
         id="stop5788" />
      <stop
         style="stop-color:#c4c600;stop-opacity:1;"
         offset="1"
         id="stop5790" />
    </linearGradient>
    <linearGradient
       id="linearGradient5775">
      <stop
         style="stop-color:#c4c600;stop-opacity:1;"
         offset="0"
         id="stop5777" />
      <stop
         style="stop-color:#000000;stop-opacity:1;"
         offset="1"
         id="stop5779" />
    </linearGradient>
    <linearGradient
       id="linearGradient5757">
      <stop
         style="stop-color:#c4c600;stop-opacity:1;"
         offset="0"
         id="stop5759" />
      <stop
         id="stop5765"
         offset="0.49106428"
         style="stop-color:#fdff15;stop-opacity:0.49803922;" />
      <stop
         style="stop-color:#fdff2e;stop-opacity:1;"
         offset="1"
         id="stop5761" />
    </linearGradient>
    <linearGradient
       id="linearGradient5725">
      <stop
         style="stop-color:#ffffff;stop-opacity:1;"
         offset="0"
         id="stop5727" />
      <stop
         id="stop5745"
         offset="0.51380622"
         style="stop-color:#f8fbb6;stop-opacity:1;" />
      <stop
         style="stop-color:#f2f76d;stop-opacity:1;"
         offset="1"
         id="stop5729" />
    </linearGradient>
    <linearGradient
       id="linearGradient5713">
      <stop
         style="stop-color:#008000;stop-opacity:1;"
         offset="0"
         id="stop5715" />
      <stop
         id="stop5721"
         offset="0.35127398"
         style="stop-color:#008000;stop-opacity:0.49803922;" />
      <stop
         style="stop-color:#008000;stop-opacity:0.24705882;"
         offset="0.60597223"
         id="stop5723" />
      <stop
         style="stop-color:#008000;stop-opacity:0;"
         offset="1"
         id="stop5717" />
    </linearGradient>
    <linearGradient
       id="linearGradient5697">
      <stop
         style="stop-color:#13ad13;stop-opacity:1;"
         offset="0"
         id="stop5699" />
      <stop
         id="stop5701"
         offset="0.71729273"
         style="stop-color:#1ed61e;stop-opacity:1;" />
      <stop
         style="stop-color:#24ea24;stop-opacity:1;"
         offset="0.85345757"
         id="stop5703" />
      <stop
         id="stop5705"
         offset="1"
         style="stop-color:#2aff2a;stop-opacity:1;" />
    </linearGradient>
    <linearGradient
       id="linearGradient4221">
      <stop
         style="stop-color:#13ad13;stop-opacity:1;"
         offset="0"
         id="stop4223" />
      <stop
         id="stop4225"
         offset="0.64034361"
         style="stop-color:#1ed61e;stop-opacity:1;" />
      <stop
         style="stop-color:#24ea24;stop-opacity:1;"
         offset="0.91685563"
         id="stop4227" />
      <stop
         id="stop4229"
         offset="1"
         style="stop-color:#2aff2a;stop-opacity:1;" />
    </linearGradient>
    <linearGradient
       id="linearGradient4196">
      <stop
         id="stop4204"
         offset="0"
         style="stop-color:#13ad13;stop-opacity:1;" />
      <stop
         style="stop-color:#1ed61e;stop-opacity:1;"
         offset="0.64034361"
         id="stop4217" />
      <stop
         id="stop4219"
         offset="0.91685563"
         style="stop-color:#24ea24;stop-opacity:1;" />
      <stop
         style="stop-color:#2aff2a;stop-opacity:1;"
         offset="1"
         id="stop4200" />
    </linearGradient>
    <linearGradient
       id="linearGradient4099">
      <stop
         style="stop-color:#e6e6e6;stop-opacity:0.49803922;"
         offset="0"
         id="stop4117" />
      <stop
         id="stop5807"
         offset="0.83169001"
         style="stop-color:#000000;stop-opacity:0.22131148;" />
      <stop
         style="stop-color:#000000;stop-opacity:1;"
         offset="1"
         id="stop4103" />
    </linearGradient>
    <linearGradient
       inkscape:collect="always"
       id="linearGradient4069">
      <stop
         style="stop-color:#6d6dff;stop-opacity:1;"
         offset="0"
         id="stop4071" />
      <stop
         style="stop-color:#6d6dff;stop-opacity:0;"
         offset="1"
         id="stop4073" />
    </linearGradient>
    <linearGradient
       inkscape:collect="always"
       id="linearGradient4011">
      <stop
         style="stop-color:#350842;stop-opacity:1;"
         offset="0"
         id="stop4013" />
      <stop
         style="stop-color:#350842;stop-opacity:0;"
         offset="1"
         id="stop4015" />
    </linearGradient>
    <linearGradient
       inkscape:collect="always"
       id="linearGradient3977">
      <stop
         style="stop-color:#350842;stop-opacity:1;"
         offset="0"
         id="stop3979" />
      <stop
         style="stop-color:#350842;stop-opacity:0;"
         offset="1"
         id="stop3981" />
    </linearGradient>
    <linearGradient
       inkscape:collect="always"
       id="linearGradient3967">
      <stop
         style="stop-color:#350842;stop-opacity:1;"
         offset="0"
         id="stop3969" />
      <stop
         style="stop-color:#350842;stop-opacity:0;"
         offset="1"
         id="stop3971" />
    </linearGradient>
    <linearGradient
       inkscape:collect="always"
       id="linearGradient3957">
      <stop
         style="stop-color:#350842;stop-opacity:1;"
         offset="0"
         id="stop3959" />
      <stop
         style="stop-color:#350842;stop-opacity:0;"
         offset="1"
         id="stop3961" />
    </linearGradient>
    <linearGradient
       inkscape:collect="always"
       id="linearGradient3947">
      <stop
         style="stop-color:#350842;stop-opacity:1;"
         offset="0"
         id="stop3949" />
      <stop
         style="stop-color:#350842;stop-opacity:0;"
         offset="1"
         id="stop3951" />
    </linearGradient>
    <linearGradient
       inkscape:collect="always"
       id="linearGradient3937">
      <stop
         style="stop-color:#350842;stop-opacity:1;"
         offset="0"
         id="stop3939" />
      <stop
         style="stop-color:#350842;stop-opacity:0;"
         offset="1"
         id="stop3941" />
    </linearGradient>
    <linearGradient
       inkscape:collect="always"
       id="linearGradient3927">
      <stop
         style="stop-color:#350842;stop-opacity:1;"
         offset="0"
         id="stop3929" />
      <stop
         style="stop-color:#350842;stop-opacity:0;"
         offset="1"
         id="stop3931" />
    </linearGradient>
    <linearGradient
       inkscape:collect="always"
       id="linearGradient3917">
      <stop
         style="stop-color:#350842;stop-opacity:1;"
         offset="0"
         id="stop3919" />
      <stop
         style="stop-color:#350842;stop-opacity:0;"
         offset="1"
         id="stop3921" />
    </linearGradient>
    <linearGradient
       inkscape:collect="always"
       id="linearGradient3907">
      <stop
         style="stop-color:#350842;stop-opacity:1;"
         offset="0"
         id="stop3909" />
      <stop
         style="stop-color:#350842;stop-opacity:0;"
         offset="1"
         id="stop3911" />
    </linearGradient>
    <linearGradient
       inkscape:collect="always"
       id="linearGradient3899">
      <stop
         style="stop-color:#350842;stop-opacity:1"
         offset="0"
         id="stop3901" />
      <stop
         style="stop-color:#800080;stop-opacity:0;"
         offset="1"
         id="stop3903" />
    </linearGradient>
    <linearGradient
       inkscape:collect="always"
       id="linearGradient3992">
      <stop
         style="stop-color:#800000;stop-opacity:1;"
         offset="0"
         id="stop3994" />
      <stop
         style="stop-color:#800000;stop-opacity:0;"
         offset="1"
         id="stop3996" />
    </linearGradient>
    <linearGradient
       id="linearGradient5439">
      <stop
         id="stop5441"
         offset="0"
         style="stop-color:#d40000;stop-opacity:1;" />
      <stop
         style="stop-color:#d40000;stop-opacity:0.49803922;"
         offset="0.5"
         id="stop5443" />
      <stop
         id="stop5445"
         offset="1"
         style="stop-color:#d40000;stop-opacity:0;" />
    </linearGradient>
    <linearGradient
       id="linearGradient5415">
      <stop
         style="stop-color:#d40000;stop-opacity:1;"
         offset="0"
         id="stop5417" />
      <stop
         id="stop5427"
         offset="0.5"
         style="stop-color:#d40000;stop-opacity:0.49803922;" />
      <stop
         style="stop-color:#d40000;stop-opacity:0;"
         offset="1"
         id="stop5419" />
    </linearGradient>
    <linearGradient
       id="linearGradient5403">
      <stop
         style="stop-color:#d40000;stop-opacity:0.24705882;"
         offset="0"
         id="stop5413" />
      <stop
         style="stop-color:#d40000;stop-opacity:0;"
         offset="1"
         id="stop5407" />
    </linearGradient>
    <linearGradient
       inkscape:collect="always"
       id="linearGradient5371">
      <stop
         style="stop-color:#d40000;stop-opacity:1;"
         offset="0"
         id="stop5373" />
      <stop
         style="stop-color:#d40000;stop-opacity:0;"
         offset="1"
         id="stop5375" />
    </linearGradient>
    <linearGradient
       id="linearGradient3898"
       osb:paint="solid">
      <stop
         style="stop-color:#d40000;stop-opacity:1;"
         offset="0"
         id="stop3900" />
    </linearGradient>
    <linearGradient
       inkscape:collect="always"
       id="linearGradient5625">
      <stop
         style="stop-color:#803680;stop-opacity:1;"
         offset="0"
         id="stop5627" />
      <stop
         style="stop-color:#803680;stop-opacity:0;"
         offset="1"
         id="stop5629" />
    </linearGradient>
    <linearGradient
       inkscape:collect="always"
       id="linearGradient5617">
      <stop
         style="stop-color:#803680;stop-opacity:1;"
         offset="0"
         id="stop5619" />
      <stop
         style="stop-color:#803680;stop-opacity:0;"
         offset="1"
         id="stop5621" />
    </linearGradient>
    <linearGradient
       inkscape:collect="always"
       xlink:href="#linearGradient5617"
       id="linearGradient5623"
       x1="620.13"
       y1="124.51"
       x2="721.5"
       y2="124.51"
       gradientUnits="userSpaceOnUse" />
    <linearGradient
       inkscape:collect="always"
       xlink:href="#linearGradient5625"
       id="linearGradient5631"
       x1="618.23"
       y1="147.375"
       x2="721.75"
       y2="147.375"
       gradientUnits="userSpaceOnUse" />
    <linearGradient
       inkscape:collect="always"
       xlink:href="#linearGradient5371"
       id="linearGradient5381"
       x1="249.48167"
       y1="145.67"
       x2="363.17001"
       y2="145.67"
       gradientUnits="userSpaceOnUse" />
    <linearGradient
       inkscape:collect="always"
       xlink:href="#linearGradient5371"
       id="linearGradient3903"
       x1="249.48167"
       y1="145.67"
       x2="363.17001"
       y2="145.67"
       gradientUnits="userSpaceOnUse" />
    <linearGradient
       inkscape:collect="always"
       xlink:href="#linearGradient3992"
       id="linearGradient3998"
       x1="272.07687"
       y1="194.79901"
       x2="368.43384"
       y2="40.393555"
       gradientUnits="userSpaceOnUse" />
    <linearGradient
       inkscape:collect="always"
       xlink:href="#linearGradient4011"
       id="linearGradient4039"
       gradientUnits="userSpaceOnUse"
       x1="666.00159"
       y1="124.62145"
       x2="715.54651"
       y2="73.132622" />
    <linearGradient
       inkscape:collect="always"
       xlink:href="#linearGradient3977"
       id="linearGradient4041"
       gradientUnits="userSpaceOnUse"
       x1="684.87659"
       y1="177.22647"
       x2="718.50732"
       y2="86.170799" />
    <linearGradient
       inkscape:collect="always"
       xlink:href="#linearGradient3967"
       id="linearGradient4043"
       gradientUnits="userSpaceOnUse"
       x1="661.50665"
       y1="166.56575"
       x2="719.13068"
       y2="79.701996" />
    <linearGradient
       inkscape:collect="always"
       xlink:href="#linearGradient3957"
       id="linearGradient4045"
       gradientUnits="userSpaceOnUse"
       x1="643.03491"
       y1="178.04922"
       x2="712.50903"
       y2="81.002953" />
    <linearGradient
       inkscape:collect="always"
       xlink:href="#linearGradient3947"
       id="linearGradient4047"
       gradientUnits="userSpaceOnUse"
       x1="681.03619"
       y1="136.56487"
       x2="729.19415"
       y2="81.974289" />
    <linearGradient
       inkscape:collect="always"
       xlink:href="#linearGradient3937"
       id="linearGradient4049"
       gradientUnits="userSpaceOnUse"
       x1="656.54388"
       y1="143.90259"
       x2="723.5672"
       y2="68.661995" />
    <linearGradient
       inkscape:collect="always"
       xlink:href="#linearGradient3927"
       id="linearGradient4051"
       gradientUnits="userSpaceOnUse"
       x1="642.37219"
       y1="137.49455"
       x2="717.18604"
       y2="76.503693" />
    <linearGradient
       inkscape:collect="always"
       xlink:href="#linearGradient3917"
       id="linearGradient4053"
       gradientUnits="userSpaceOnUse"
       x1="622.07367"
       y1="151.22548"
       x2="709.39136"
       y2="84.557961" />
    <linearGradient
       inkscape:collect="always"
       xlink:href="#linearGradient3899"
       id="linearGradient4055"
       gradientUnits="userSpaceOnUse"
       x1="650.52704"
       y1="127.94425"
       x2="718.4635"
       y2="80.177498" />
    <linearGradient
       inkscape:collect="always"
       xlink:href="#linearGradient3907"
       id="linearGradient4057"
       gradientUnits="userSpaceOnUse"
       x1="679.47571"
       y1="120.95387"
       x2="720.87964"
       y2="81.561798" />
    <linearGradient
       inkscape:collect="always"
       xlink:href="#linearGradient4069"
       id="linearGradient4075"
       x1="468.0546"
       y1="105.68737"
       x2="563.56976"
       y2="2.7097011"
       gradientUnits="userSpaceOnUse" />
    <linearGradient
       inkscape:collect="always"
       xlink:href="#linearGradient4069"
       id="linearGradient4077"
       gradientUnits="userSpaceOnUse"
       x1="496.59058"
       y1="78.392082"
       x2="563.56976"
       y2="2.7097011" />
    <linearGradient
       inkscape:collect="always"
       xlink:href="#linearGradient4069"
       id="linearGradient4079"
       gradientUnits="userSpaceOnUse"
       x1="459.36972"
       y1="110.65015"
       x2="563.56976"
       y2="2.7097011" />
    <linearGradient
       inkscape:collect="always"
       xlink:href="#linearGradient4069"
       id="linearGradient4081"
       gradientUnits="userSpaceOnUse"
       x1="491.62781"
       y1="115.61293"
       x2="563.56976"
       y2="2.7097011" />
    <linearGradient
       inkscape:collect="always"
       xlink:href="#linearGradient4069"
       id="linearGradient4083"
       gradientUnits="userSpaceOnUse"
       x1="508.99753"
       y1="126.77918"
       x2="563.56976"
       y2="2.7097011" />
    <linearGradient
       inkscape:collect="always"
       xlink:href="#linearGradient4069"
       id="linearGradient4085"
       gradientUnits="userSpaceOnUse"
       x1="448.20349"
       y1="85.83625"
       x2="563.56976"
       y2="2.7097011" />
    <radialGradient
       inkscape:collect="always"
       xlink:href="#linearGradient5697"
       id="radialGradient5707"
       cx="608.59515"
       cy="596.35034"
       fx="608.59515"
       fy="596.35034"
       r="196.14063"
       gradientTransform="matrix(-0.81606251,0.02755175,-0.03780931,-1.1198839,1131.8908,1224.8742)"
       gradientUnits="userSpaceOnUse" />
    <linearGradient
       inkscape:collect="always"
       xlink:href="#linearGradient5713"
       id="linearGradient5719"
       x1="618.80627"
       y1="550.73749"
       x2="729.38037"
       y2="254.98897"
       gradientUnits="userSpaceOnUse"
       spreadMethod="reflect" />
    <radialGradient
       inkscape:collect="always"
       xlink:href="#linearGradient5725"
       id="radialGradient5741"
       cx="542.03021"
       cy="500.10696"
       fx="542.03021"
       fy="500.10696"
       r="63.906143"
       gradientTransform="matrix(1.3822342,-7.0624581e-4,7.7865722e-4,1.5239555,-207.57189,-261.65098)"
       gradientUnits="userSpaceOnUse" />
    <radialGradient
       inkscape:collect="always"
       xlink:href="#linearGradient5725"
       id="radialGradient5749"
       gradientUnits="userSpaceOnUse"
       gradientTransform="matrix(1.1057865,-5.6499621e-4,6.2292529e-4,1.2191635,-44.457415,-211.51391)"
       cx="542.03021"
       cy="500.10696"
       fx="542.03021"
       fy="500.10696"
       r="63.906143" />
    <radialGradient
       inkscape:collect="always"
       xlink:href="#linearGradient5725"
       id="radialGradient5753"
       gradientUnits="userSpaceOnUse"
       gradientTransform="matrix(1.1057865,-5.6499621e-4,6.2292529e-4,1.2191635,-105.25738,-72.313928)"
       cx="542.03021"
       cy="500.10696"
       fx="542.03021"
       fy="500.10696"
       r="63.906143" />
    <linearGradient
       inkscape:collect="always"
       xlink:href="#linearGradient5757"
       id="linearGradient5763"
       x1="686.72943"
       y1="615.27545"
       x2="619.77814"
       y2="538.87695"
       gradientUnits="userSpaceOnUse" />
    <linearGradient
       inkscape:collect="always"
       xlink:href="#linearGradient5757"
       id="linearGradient5773"
       x1="315.08624"
       y1="618.47961"
       x2="363.66574"
       y2="544.78613"
       gradientUnits="userSpaceOnUse" />
    <radialGradient
       inkscape:collect="always"
       xlink:href="#linearGradient5786"
       id="radialGradient5792"
       cx="756.51984"
       cy="633.9928"
       fx="756.51984"
       fy="633.9928"
       r="56.018506"
       gradientTransform="matrix(-0.44328618,0.55369613,-1.2701261,-1.0168563,1868.143,849.28731)"
       gradientUnits="userSpaceOnUse" />
    <radialGradient
       inkscape:collect="always"
       xlink:href="#linearGradient5786"
       id="radialGradient5835"
       cx="265.65027"
       cy="625.20056"
       fx="265.65027"
       fy="625.20056"
       r="56.018506"
       gradientTransform="matrix(-1.0649722,0.99587343,-0.54290656,-0.5805762,887.98591,723.60058)"
       gradientUnits="userSpaceOnUse" />
    <linearGradient
       inkscape:collect="always"
       xlink:href="#linearGradient4099"
       id="linearGradient5843"
       x1="357.79337"
       y1="578.44012"
       x2="403.08051"
       y2="634.62366"
       gradientUnits="userSpaceOnUse"
       spreadMethod="reflect" />
    <linearGradient
       inkscape:collect="always"
       xlink:href="#linearGradient4099"
       id="linearGradient5851"
       x1="643.46173"
       y1="583.10925"
       x2="694.40613"
       y2="514.67957"
       gradientUnits="userSpaceOnUse"
       spreadMethod="reflect" />
  </defs>
  <sodipodi:namedview
     pagecolor="#ffffff"
     bordercolor="#666666"
     borderopacity="1"
     objecttolerance="10"
     gridtolerance="10"
     guidetolerance="10"
     inkscape:pageopacity="0"
     inkscape:pageshadow="2"
     inkscape:window-width="710"
     inkscape:window-height="453"
     id="namedview5"
     showgrid="false"
     inkscape:zoom="1.1586755"
     inkscape:cx="119.2818"
     inkscape:cy="89.32613"
     inkscape:window-x="501"
     inkscape:window-y="27"
     inkscape:window-maximized="0"
     inkscape:current-layer="layer3"
     showguides="true"
     inkscape:guide-bbox="true" />
  <g
     inkscape:groupmode="layer"
     id="layer2"
     inkscape:label="d6"
     style="display:inline">
    <g
       inkscape:groupmode="layer"
       id="layer8"
       inkscape:label="D6back"
       style="fill-opacity:1;fill:url(#linearGradient3998);stroke-width:2.01735624;stroke-miterlimit:4;stroke-dasharray:none">
      <path
         style="fill:url(#linearGradient3998);fill-opacity:1;stroke:#000000;stroke-width:2.01735624;stroke-linecap:square;stroke-linejoin:bevel;stroke-miterlimit:4;stroke-opacity:1;stroke-dasharray:none"
         d="m 309.33,82.67 -44.66,35.76174 -14.90303,40.40961 42.17283,-37.94839"
         id="d6"
         inkscape:connector-curvature="0"
         inkscape:transform-center-x="-19.115868"
         inkscape:transform-center-y="26.935997"
         sodipodi:nodetypes="cccc" />
      <path
         inkscape:transform-center-y="26.935997"
         inkscape:transform-center-x="-19.115868"
         inkscape:connector-curvature="0"
         d="m 250,158.67 50,50 42.09596,-40.12337 L 292,120.67 l -42.00461,37.99547 42.04273,-37.96271"
         style="fill:url(#linearGradient3998);fill-opacity:1;fill-rule:nonzero;stroke:#000000;stroke-width:2.01735624;stroke-linecap:square;stroke-linejoin:bevel;stroke-miterlimit:4;stroke-opacity:1;stroke-dasharray:none"
         id="path3116"
         sodipodi:nodetypes="cccccc" />
      <path
         style="fill:url(#linearGradient3998);fill-opacity:1;fill-rule:nonzero;stroke:#000000;stroke-width:2.01735624;stroke-linecap:square;stroke-linejoin:bevel;stroke-miterlimit:4;stroke-opacity:1;stroke-dasharray:none"
         d="M 292.03812,120.70276 309.44386,82.68215 292,120.75 342,168.67 362.67,132 309.44632,82.679693"
         id="path3118"
         inkscape:connector-curvature="0"
         inkscape:transform-center-x="-19.115868"
         inkscape:transform-center-y="26.935997"
         sodipodi:nodetypes="cccccc" />
    </g>
    <g
       inkscape:groupmode="layer"
       id="layer9"
       inkscape:label="D6nums">
      <path
         id="d6_6a"
         style="fill:#000000;stroke:#000000;stroke-opacity:1;fill-opacity:1"
         d="m 278.48,154.71 c 3.02,3.28 1.44,8.64 -3.53,9.11 -5.82,0.56 -10.36,-6.56 -3.6,-10.72 2.6,-0.55 4.98,-0.71 7.13,1.61 z m 11.72,14.65 c 2.79,3.04 2,8.12 -1.8,9.44 -6.2,2.15 -12.29,-6.68 -4.78,-11.11 2.4,-0.36 4.56,-0.53 6.58,1.67 z m 13.45,15.91 c 2.99,3.25 2.25,8.61 -1.72,9.94 -6.46,2.18 -13.01,-7.27 -5.22,-11.83 2.52,-0.33 4.78,-0.48 6.94,1.89 z m -8.22,-45.18 c 3.14,3.16 1.66,8.42 -3.37,8.96 -5.89,0.63 -10.67,-6.26 -3.9,-10.43 2.62,-0.58 5.04,-0.77 7.27,1.47 z m 12.24,14.14 c 2.9,2.92 2.22,7.9 -1.61,9.25 -6.24,2.2 -12.63,-6.35 -5.11,-10.79 2.43,-0.39 4.61,-0.58 6.72,1.54 z m 14.02,15.33 c 3.1,3.14 2.48,8.39 -1.52,9.75 -6.5,2.22 -13.37,-6.91 -5.57,-11.48 2.55,-0.37 4.84,-0.54 7.09,1.73 z" />
      <path
         id="d6_3b"
         style="fill:#000000;stroke:#000000;stroke-opacity:1;fill-opacity:1"
         d="m 282.46,113.32 c 2.5,0.62 1.22,4.67 -2.19,7.08 -3.53,2.51 -6.95,1.15 -2.66,-4.29 1.75,-1.59 3.16,-2.84 4.85,-2.79 z m 12,-13 c 2.5,0.62 1.22,4.67 -2.19,7.08 -3.53,2.51 -6.95,1.15 -2.66,-4.29 1.75,-1.59 3.16,-2.84 4.85,-2.79 z m -25,29 c 2.5,0.62 1.22,4.67 -2.19,7.08 -3.53,2.51 -6.95,1.15 -2.66,-4.29 1.75,-1.59 3.16,-2.84 4.85,-2.79 z" />
      <path
         id="d6_2b"
         style="fill:#000000;stroke:#000000;stroke-opacity:1;fill-opacity:1"
         d="m 347.11,134.82 c -4.68,2.12 -14.54,-5.6 -8.2,-10.46 7.95,-1.59 13.59,8.02 8.2,10.46 z m -24.15,-8.69 c -6.86,1.98 -15.4,-8.16 -7.78,-11.9 9.93,-1.11 14.04,10.09 7.78,11.9 z" />
    </g>
  </g>
  <g
     inkscape:groupmode="layer"
     id="layer1"
     inkscape:label="d10"
     style="display:inline">
    <g
       inkscape:groupmode="layer"
       id="layer10"
       inkscape:label="d10back"
       style="fill-opacity:1;fill:url(#linearGradient4075);stroke:#000000;stroke-opacity:1;stroke-width:2.01735624;stroke-miterlimit:4;stroke-dasharray:none">
      <path
         style="fill:url(#linearGradient4077);stroke:#000000;stroke-width:2.01735624;stroke-linecap:square;stroke-linejoin:bevel;stroke-miterlimit:4;stroke-opacity:1;stroke-dasharray:none;fill-opacity:1"
         d="m 505.33,71.33 -14,-50.66 54.34,47.66 L 530,77 M 545.7,68.35 530,77 505.38,71.38"
         id="d10"
         inkscape:connector-curvature="0"
         sodipodi:nodetypes="ccccccc" />
      <path
         inkscape:connector-curvature="0"
         id="path3980"
         d="m 442.67,71.33 32,10.67 19,46.67 -51.17,-57.29"
         style="fill:url(#linearGradient4079);stroke:#000000;stroke-linecap:square;stroke-linejoin:bevel;stroke-opacity:1;fill-opacity:1;stroke-width:2.01735624;stroke-miterlimit:4;stroke-dasharray:none"
         sodipodi:nodetypes="cccc" />
      <path
         inkscape:connector-curvature="0"
         id="path4006"
         d="M 474.67,82 505.33,71.33 530,77 493.67,128.67"
         style="fill:url(#linearGradient4081);stroke:#000000;stroke-width:2.01735624;stroke-linecap:square;stroke-linejoin:bevel;stroke-miterlimit:4;stroke-opacity:1;stroke-dasharray:none;fill-opacity:1"
         sodipodi:nodetypes="cccc" />
      <path
         inkscape:connector-curvature="0"
         id="path3891"
         d="M 545.67,68.33 530,77 493.67,128.67 545.7,68.35 530,77"
         style="fill:url(#linearGradient4083);stroke:#000000;stroke-width:2.01735624;stroke-linecap:square;stroke-linejoin:bevel;stroke-miterlimit:4;stroke-opacity:1;stroke-dasharray:none;fill-opacity:1"
         sodipodi:nodetypes="ccccc" />
      <path
         inkscape:connector-curvature="0"
         id="path3909"
         d="m 491.33,20.67 -48.66,50.66 32,10.67 30.66,-10.67 -14,-50.66 m 14.05,50.71 c 0,0 -30.5,10.75 -30.75,10.62"
         style="fill:url(#linearGradient4085);stroke:#000000;stroke-width:2.01735624;stroke-linecap:square;stroke-linejoin:bevel;stroke-miterlimit:4;stroke-opacity:1;stroke-dasharray:none;fill-opacity:1"
         sodipodi:nodetypes="ccccccc" />
    </g>
    <g
       inkscape:groupmode="layer"
       id="layer11"
       inkscape:label="d10num"
       style="stroke:none;fill:#1a1a1a">
      <path
         style="fill:#1a1a1a;stroke:none;stroke-opacity:1;fill-opacity:1"
         d="m 489.1,59.12 c 0.26,-1.29 0.25,-2.35 -0.01,-3.2 -0.24,-0.85 -0.69,-1.54 -1.34,-2.08 -0.63,-0.52 -1.36,-0.89 -2.17,-1.12 -0.8,-0.22 -1.76,-0.36 -2.9,-0.41 -0.31,-0.02 -0.69,-0.03 -1.13,-0.03 -0.43,0 -0.85,0.01 -1.26,0.05 0,0 1.31,-4.87 1.31,-4.87 0,0 9.71,0.46 9.71,0.46 0,0 0.59,-2.98 0.59,-2.98 0,0 -13.31,-0.65 -13.31,-0.65 0,0 -3.31,11.07 -3.31,11.07 0.59,0.02 1.28,0.05 2.07,0.09 0.8,0.04 1.63,0.07 2.49,0.11 0.9,0.04 1.71,0.14 2.4,0.3 0.71,0.14 1.28,0.36 1.7,0.67 0.42,0.26 0.72,0.59 0.88,1.01 0.17,0.41 0.19,0.92 0.06,1.51 -0.14,0.62 -0.4,1.16 -0.77,1.62 -0.36,0.47 -0.82,0.87 -1.39,1.2 -0.68,0.36 -1.41,0.62 -2.2,0.76 -0.78,0.13 -1.58,0.17 -2.39,0.14 -1.2,-0.05 -2.37,-0.28 -3.52,-0.69 -1.13,-0.42 -2.07,-0.91 -2.83,-1.47 0,0 -0.24,-0.01 -0.24,-0.01 0,0 -1.26,4.02 -1.26,4.02 0.8,0.51 1.83,0.96 3.1,1.37 1.29,0.39 2.7,0.61 4.2,0.67 1.6,0.07 3.06,-0.08 4.35,-0.44 1.32,-0.36 2.49,-0.91 3.52,-1.64 0.94,-0.64 1.73,-1.46 2.38,-2.43 0.64,-0.97 1.07,-1.98 1.27,-3.03 0,0 0,0 0,0 z"
         id="d10_5"
         inkscape:connector-curvature="0" />
      <path
         style="fill:#1a1a1a;stroke:none;stroke-opacity:1;fill-opacity:1"
         d="m 514.64,45.01 c 0,0 -11.33,1.92 -11.33,1.92 0,0 1.42,2.45 1.42,2.45 0,0 8.83,-1.46 8.83,-1.46 0,0 2.43,17.97 2.43,17.97 0,0 3.67,-0.52 3.67,-0.52 0,0 -3.22,-17.93 -3.22,-17.93 0,0 -1.8,-2.43 -1.8,-2.43 z"
         id="d10_7"
         inkscape:connector-curvature="0" />
      <path
         style="fill:#1a1a1a;stroke:none;stroke-opacity:1;fill-opacity:1"
         d="m 491.59,89.3 c 0,0 14.2,-0.7 14.2,-0.7 -1.31,0.91 -2.66,1.86 -4.07,2.86 -1.39,0.99 -2.7,1.96 -3.94,2.93 -0.86,0.68 -1.58,1.27 -2.15,1.79 -0.59,0.51 -1.09,1.02 -1.52,1.54 -0.45,0.53 -0.8,1.07 -1.04,1.63 -0.25,0.56 -0.4,1.15 -0.44,1.75 -0.1,1.32 0.43,2.3 1.56,2.97 1.1,0.67 2.67,0.96 4.73,0.89 1,-0.03 2.06,-0.18 3.2,-0.45 1.15,-0.26 2.09,-0.53 2.83,-0.83 0,0 0.74,-2.62 0.74,-2.62 0,0 -0.13,0 -0.13,0 -1.08,0.47 -2.13,0.83 -3.14,1.08 -1.03,0.24 -1.96,0.38 -2.8,0.41 -1.25,0.05 -2.18,-0.13 -2.81,-0.52 -0.65,-0.4 -0.92,-0.98 -0.83,-1.76 0.12,-0.88 0.55,-1.73 1.32,-2.57 0.79,-0.84 2.23,-2.02 4.37,-3.58 1.05,-0.79 2.21,-1.61 3.48,-2.44 1.29,-0.84 2.6,-1.7 3.94,-2.6 0,0 1.32,-4.64 1.32,-4.64 0,0 -18.62,0.99 -18.62,0.99 0,0 -0.2,3.87 -0.2,3.87 z"
         id="d10_2"
         inkscape:connector-curvature="0" />
      <path
         id="d10_8"
         style="fill:#1a1a1a;stroke:none;stroke-opacity:1;fill-opacity:1"
         d="m 466.41,92.58 c -0.76,-0.93 -1.22,-1.72 -1.38,-2.37 -0.15,-0.64 0.02,-1.03 0.52,-1.16 0.47,-0.13 1.11,0.09 1.9,0.65 0.78,0.56 1.52,1.3 2.21,2.21 0.54,0.71 0.95,1.35 1.25,1.92 0.3,0.59 0.47,1.06 0.51,1.42 -0.45,-0.11 -0.82,-0.19 -1.1,-0.25 -0.27,-0.04 -0.53,-0.1 -0.8,-0.19 -0.68,-0.22 -1.25,-0.49 -1.67,-0.8 -0.45,-0.32 -0.93,-0.79 -1.44,-1.43 0,0 0,0 0,0 z m 5.72,7.04 c -0.41,-0.5 -0.72,-0.99 -0.92,-1.44 -0.2,-0.45 -0.3,-0.93 -0.29,-1.43 0.29,0.02 0.6,0.08 0.95,0.16 0.34,0.08 0.6,0.15 0.8,0.21 0.41,0.12 0.79,0.31 1.12,0.54 0.33,0.24 0.64,0.55 0.93,0.93 0.4,0.54 0.61,1 0.62,1.4 0.01,0.41 -0.15,0.7 -0.49,0.87 -0.35,0.17 -0.78,0.15 -1.27,-0.07 -0.5,-0.21 -0.98,-0.6 -1.45,-1.17 0,0 0,0 0,0 z m -7.34,-7.03 c 0.94,1.12 1.82,1.97 2.65,2.56 0.8,0.57 1.61,0.99 2.42,1.25 0,0 0.05,0.06 0.05,0.06 -0.14,0.57 -0.05,1.24 0.28,2.01 0.33,0.78 0.78,1.49 1.33,2.15 0.87,1.04 1.77,1.77 2.7,2.21 0.9,0.42 1.65,0.46 2.27,0.14 0.58,-0.31 0.81,-0.87 0.7,-1.71 -0.11,-0.84 -0.54,-1.77 -1.31,-2.81 -0.53,-0.72 -1.07,-1.31 -1.61,-1.75 -0.54,-0.44 -1.15,-0.81 -1.84,-1.11 0,0 -0.05,-0.06 -0.05,-0.06 0.02,-0.55 -0.15,-1.23 -0.51,-2.04 -0.35,-0.81 -0.88,-1.69 -1.59,-2.66 -1.17,-1.58 -2.42,-2.88 -3.75,-3.85 -1.4,-1.03 -2.6,-1.46 -3.56,-1.25 -0.93,0.2 -1.21,0.99 -0.84,2.35 0.38,1.35 1.28,2.87 2.66,4.51 0,0 0,0 0,0 z"
         inkscape:connector-curvature="0" />
    </g>
  </g>
  <g
     inkscape:groupmode="layer"
     id="layer3"
     inkscape:label="d20"
     style="display:inline">
    <g
       inkscape:groupmode="layer"
       id="layer12"
       inkscape:label="d20back"
       style="stroke-width:2.01735624;stroke-miterlimit:4;stroke-dasharray:none">
      <path
         style="fill:url(#linearGradient4057);fill-opacity:1;stroke:#000000;stroke-linecap:square;stroke-linejoin:bevel;stroke-opacity:1;stroke-width:2.01735624;stroke-miterlimit:4;stroke-dasharray:none"
         d="m 676.09,92.52 -6.35,6.96 51.26,18.27 z"
         id="path5396"
         inkscape:connector-curvature="0"
         sodipodi:nodetypes="cccc" />
      <path
         inkscape:connector-curvature="0"
         id="path3896"
         d="m 620.63,112.5 55.46,-19.98 -6.35,6.96 z"
         style="fill:url(#linearGradient4055);fill-opacity:1;stroke:#000000;stroke-linecap:square;stroke-linejoin:bevel;stroke-opacity:1;stroke-width:2.01735624;stroke-miterlimit:4;stroke-dasharray:none"
         sodipodi:nodetypes="cccc" />
      <path
         inkscape:connector-curvature="0"
         id="path3915"
         d="m 620.13,112.38 11.12,41.12 z M 618.72944,172.55315 631.2257,153.5043 620.18,112.36 l -1.45,60.19 z"
         style="fill:url(#linearGradient4053);fill-opacity:1;stroke:#000000;stroke-linecap:square;stroke-linejoin:bevel;stroke-opacity:1;stroke-width:2.01735624;stroke-miterlimit:4;stroke-dasharray:none"
         sodipodi:nodetypes="cccccccc" />
      <path
         inkscape:connector-curvature="0"
         id="path3925"
         d="m 669.75,99.38 -49.62,13 11.12,41.12 c 0,0 38.63,-54.12 38.5,-54.12 z m -38.66,54.26 -10.91,-41.28 z"
         style="fill:url(#linearGradient4051);fill-opacity:1;stroke:#000000;stroke-linecap:square;stroke-linejoin:bevel;stroke-opacity:1;stroke-width:2.01735624;stroke-miterlimit:4;stroke-dasharray:none"
         sodipodi:nodetypes="cccccccc" />
      <path
         inkscape:connector-curvature="0"
         id="path3935"
         d="m 631.25,153.5 c 0,0 38.63,-54.12 38.5,-54.12 -0.12,0 29.63,57 29.63,57 l -0.05,-0.05 -68.33,-2.66 z"
         style="fill:url(#linearGradient4049);fill-opacity:1;stroke:#000000;stroke-linecap:square;stroke-linejoin:bevel;stroke-opacity:1;stroke-width:2.01735624;stroke-miterlimit:4;stroke-dasharray:none"
         sodipodi:nodetypes="cscccc" />
      <path
         inkscape:connector-curvature="0"
         id="path3945"
         d="m 721.25,117.75 -21.87,38.63 c 0,0 -29.75,-57 -29.63,-57 z"
         style="fill:url(#linearGradient4047);fill-opacity:1;stroke:#000000;stroke-linecap:square;stroke-linejoin:bevel;stroke-opacity:1;stroke-width:2.01735624;stroke-miterlimit:4;stroke-dasharray:none"
         sodipodi:nodetypes="cccc" />
      <path
         sodipodi:nodetypes="ccccc"
         inkscape:connector-curvature="0"
         id="path3955"
         d="m 631,153.67 31.95754,48.58 -44.13,-29.69 12.26246,-18.92 z"
         style="fill:url(#linearGradient4045);fill-opacity:1;stroke:#000000;stroke-linecap:square;stroke-linejoin:bevel;stroke-opacity:1;stroke-width:2.01735624;stroke-miterlimit:4;stroke-dasharray:none" />
      <path
         sodipodi:nodetypes="ccccc"
         inkscape:connector-curvature="0"
         id="path3965"
         d="m 663,202 36.33,-45.67 -68.33,-2.66 31.88,48.34737 z"
         style="fill:url(#linearGradient4043);fill-opacity:1;stroke:#000000;stroke-linecap:square;stroke-linejoin:bevel;stroke-opacity:1;stroke-width:2.01735624;stroke-miterlimit:4;stroke-dasharray:none" />
      <path
         sodipodi:nodetypes="ccccc"
         inkscape:connector-curvature="0"
         id="path3975"
         d="m 699.38,156.38 17.75,23.5 -54.36263,22.35263 L 699.33,156.33 z"
         style="fill:url(#linearGradient4041);fill-opacity:1;stroke:#000000;stroke-linecap:square;stroke-linejoin:bevel;stroke-opacity:1;stroke-width:2.01735624;stroke-miterlimit:4;stroke-dasharray:none" />
      <path
         sodipodi:nodetypes="cccc"
         inkscape:connector-curvature="0"
         id="path3985"
         d="m 717.13,179.88 -17.75,-23.5 21.87,-38.63 z"
         style="fill:url(#linearGradient4039);fill-opacity:1;fill-rule:nonzero;stroke:#000000;stroke-width:2.01735624;stroke-linejoin:bevel;stroke-miterlimit:4;stroke-opacity:1;stroke-dasharray:none" />
    </g>
    <g
       inkscape:groupmode="layer"
       id="layer13"
       inkscape:label="d20num"
       style="fill:#e6e6e6;fill-opacity:1;stroke:none;stroke-opacity:1">
      <path
         id="d20_11"
         style="fill:#e6e6e6;fill-opacity:1;stroke:none;stroke-opacity:1"
         d="m 717.26,149.7 c 0,0 -1.39,2.07 -1.39,2.07 0,0 -1.62,-12.14 -1.62,-12.14 0,0 -0.84,1.4 -0.84,1.4 0.07,0.54 0.08,1.04 0.04,1.5 -0.05,0.44 -0.13,0.87 -0.25,1.31 -0.1,0.35 -0.26,0.76 -0.47,1.22 -0.22,0.44 -0.42,0.82 -0.62,1.14 0,0 0.38,2.18 0.38,2.18 0,0 1.43,-2.29 1.43,-2.29 0,0 1.05,7.03 1.05,7.03 0,0 -1.31,1.96 -1.31,1.96 0,0 0.3,1.68 0.3,1.68 0,0 3.51,-5.15 3.51,-5.15 0,0 -0.21,-1.91 -0.21,-1.91 z m -4.87,7.28 c 0,0 -1.23,1.84 -1.23,1.84 0,0 -2.31,-10.16 -2.31,-10.16 0,0 -0.73,1.22 -0.73,1.22 0.09,0.45 0.13,0.87 0.11,1.26 -0.01,0.37 -0.07,0.74 -0.15,1.11 -0.08,0.31 -0.21,0.66 -0.4,1.06 -0.18,0.39 -0.36,0.72 -0.53,1 0,0 0.49,1.82 0.49,1.82 0,0 1.27,-2.02 1.27,-2.02 0,0 1.45,5.91 1.45,5.91 0,0 -1.18,1.75 -1.18,1.75 0,0 0.4,1.43 0.4,1.43 0,0 3.13,-4.61 3.13,-4.61 0,0 -0.32,-1.61 -0.32,-1.61 z"
         inkscape:connector-curvature="0" />
      <path
         id="d20_12"
         style="fill:#e6e6e6;fill-opacity:1;stroke:none;stroke-opacity:1"
         d="m 703.85,181.59 c 0,0 -8.04,2.98 -8.04,2.98 0.61,-0.58 1.26,-1.21 1.97,-1.88 0.71,-0.7 1.42,-1.39 2.1,-2.1 0.49,-0.51 0.9,-0.95 1.24,-1.34 0.35,-0.4 0.66,-0.78 0.92,-1.16 0.28,-0.39 0.5,-0.78 0.64,-1.16 0.16,-0.39 0.24,-0.77 0.26,-1.15 0.03,-0.85 -0.39,-1.34 -1.26,-1.47 -0.86,-0.15 -2.04,0.09 -3.55,0.71 -0.71,0.3 -1.45,0.68 -2.22,1.15 -0.76,0.46 -1.36,0.87 -1.81,1.24 0,0 -0.03,1.64 -0.03,1.64 0,0 0.08,-0.04 0.08,-0.04 0.63,-0.51 1.27,-0.96 1.91,-1.35 0.67,-0.4 1.28,-0.72 1.86,-0.95 0.87,-0.35 1.54,-0.48 2.01,-0.41 0.48,0.08 0.72,0.35 0.7,0.83 -0.01,0.52 -0.25,1.1 -0.69,1.72 -0.45,0.61 -1.25,1.51 -2.4,2.69 -0.55,0.56 -1.13,1.14 -1.75,1.72 -0.62,0.58 -1.23,1.16 -1.83,1.73 0,0 -0.03,1.79 -0.03,1.79 0,0 9.85,-3.58 9.85,-3.58 0,0 0.07,-1.61 0.07,-1.61 z m -11.97,4.43 c 0,0 -3.04,1.12 -3.04,1.12 0,0 0.06,-8.32 0.06,-8.32 0,0 -1.62,0.67 -1.62,0.67 -0.02,0.32 -0.12,0.62 -0.3,0.88 -0.17,0.25 -0.41,0.5 -0.69,0.74 -0.25,0.2 -0.6,0.42 -1.06,0.66 -0.46,0.23 -0.88,0.42 -1.27,0.58 0,0 0,1.48 0,1.48 0,0 2.92,-1.16 2.92,-1.16 0,0 -0.01,5.2 -0.01,5.2 0,0 -2.89,1.07 -2.89,1.07 0,0 0.01,1.44 0.01,1.44 0,0 7.87,-2.85 7.87,-2.85 0,0 0.02,-1.51 0.02,-1.51 z"
         inkscape:connector-curvature="0" />
      <path
         id="d20_15"
         style="fill:#e6e6e6;fill-opacity:1;stroke:none;stroke-opacity:1"
         d="m 626.17,154.41 c 0.07,-0.45 0.11,-0.86 0.12,-1.21 0.01,-0.36 0.01,-0.68 -0.03,-0.96 -0.03,-0.29 -0.08,-0.52 -0.15,-0.7 -0.06,-0.18 -0.14,-0.35 -0.25,-0.49 -0.03,-0.05 -0.06,-0.09 -0.11,-0.14 -0.04,-0.05 -0.08,-0.09 -0.12,-0.12 0,0 0.32,-2.3 0.32,-2.3 0,0 0.9,1.46 0.9,1.46 0,0 0.22,-1.42 0.22,-1.42 0,0 -1.31,-2.32 -1.31,-2.32 0,0 -0.72,5.45 -0.72,5.45 0.06,0.07 0.12,0.15 0.2,0.25 0.08,0.1 0.16,0.2 0.24,0.3 0.08,0.1 0.15,0.22 0.21,0.36 0.06,0.12 0.11,0.26 0.13,0.43 0.03,0.14 0.05,0.3 0.05,0.47 0,0.18 -0.02,0.38 -0.05,0.59 -0.03,0.22 -0.07,0.4 -0.12,0.54 -0.05,0.14 -0.1,0.25 -0.16,0.33 -0.06,0.08 -0.13,0.12 -0.21,0.11 -0.07,-0.01 -0.14,-0.05 -0.21,-0.12 -0.11,-0.11 -0.21,-0.28 -0.3,-0.52 -0.1,-0.26 -0.18,-0.53 -0.25,-0.82 0,0 -0.02,-0.02 -0.02,-0.02 0,0 -0.19,1.46 -0.19,1.46 0.07,0.24 0.16,0.48 0.27,0.71 0.1,0.22 0.22,0.38 0.35,0.5 0.14,0.12 0.26,0.16 0.38,0.12 0.12,-0.03 0.23,-0.14 0.33,-0.31 0.1,-0.15 0.18,-0.37 0.27,-0.66 0.08,-0.28 0.15,-0.61 0.21,-0.97 0,0 0,0 0,0 z m -2.38,-0.83 c 0,0 -0.73,-0.74 -0.73,-0.74 0,0 1.04,-9.57 1.04,-9.57 0,0 -0.44,-0.8 -0.44,-0.8 -0.05,0.41 -0.12,0.7 -0.19,0.87 -0.08,0.15 -0.17,0.24 -0.27,0.27 -0.09,0 -0.2,-0.08 -0.36,-0.23 -0.15,-0.18 -0.29,-0.37 -0.42,-0.58 0,0 -0.19,2.07 -0.19,2.07 0,0 0.91,1.34 0.91,1.34 0,0 -0.61,6.09 -0.61,6.09 0,0 -0.88,-0.88 -0.88,-0.88 0,0 -0.15,1.68 -0.15,1.68 0,0 2.12,1.91 2.12,1.91 0,0 0.17,-1.43 0.17,-1.43 z"
         inkscape:connector-curvature="0" />
      <path
         id="d20_13"
         style="fill:#e6e6e6;fill-opacity:1;stroke:none;stroke-opacity:1"
         d="m 671.93,171.14 c -0.29,-0.25 -0.66,-0.46 -1.11,-0.64 -0.44,-0.18 -0.83,-0.29 -1.18,-0.35 0,0 0.01,-0.18 0.01,-0.18 0.96,-0.14 1.82,-0.51 2.56,-1.1 0.75,-0.6 1.15,-1.32 1.21,-2.18 0.04,-0.62 -0.08,-1.17 -0.35,-1.66 -0.27,-0.5 -0.69,-0.93 -1.27,-1.29 -0.53,-0.34 -1.15,-0.59 -1.84,-0.75 -0.7,-0.18 -1.5,-0.28 -2.42,-0.31 -0.94,-0.04 -1.92,0.06 -2.94,0.29 -1,0.22 -1.8,0.48 -2.4,0.78 0,0 0.07,2.66 0.07,2.66 0,0 0.12,0.01 0.12,0.01 0.79,-0.39 1.63,-0.68 2.53,-0.87 0.89,-0.2 1.73,-0.29 2.51,-0.26 0.53,0.01 0.99,0.05 1.39,0.12 0.4,0.06 0.78,0.17 1.14,0.33 0.33,0.15 0.58,0.34 0.75,0.57 0.18,0.22 0.26,0.49 0.25,0.78 -0.03,0.67 -0.42,1.16 -1.17,1.48 -0.73,0.31 -1.7,0.45 -2.93,0.42 0,0 -0.84,-0.02 -0.84,-0.02 0,0 -0.01,2.37 -0.01,2.37 0,0 0.99,0.01 0.99,0.01 0.55,0.01 1.05,0.05 1.52,0.12 0.47,0.07 0.86,0.19 1.17,0.36 0.33,0.16 0.57,0.38 0.75,0.65 0.17,0.28 0.24,0.61 0.22,1.02 -0.02,0.41 -0.11,0.75 -0.28,1.01 -0.16,0.25 -0.41,0.49 -0.72,0.71 -0.32,0.2 -0.72,0.35 -1.22,0.44 -0.49,0.1 -0.95,0.14 -1.38,0.14 -0.74,-0.01 -1.51,-0.12 -2.3,-0.33 -0.8,-0.21 -1.51,-0.48 -2.11,-0.8 0,0 -0.17,-0.01 -0.17,-0.01 0,0 0.06,2.22 0.06,2.22 0.55,0.26 1.24,0.49 2.07,0.71 0.84,0.2 1.69,0.3 2.55,0.31 0.83,0 1.59,-0.09 2.28,-0.28 0.71,-0.19 1.33,-0.48 1.86,-0.87 0.49,-0.37 0.87,-0.8 1.15,-1.29 0.29,-0.51 0.46,-1.08 0.5,-1.7 0.04,-0.64 -0.03,-1.16 -0.22,-1.57 -0.19,-0.42 -0.46,-0.77 -0.8,-1.05 0,0 0,0 0,0 z m -11.76,4.59 c 0,0 -3.55,-0.04 -3.55,-0.04 0,0 -1.05,-13.42 -1.05,-13.42 0,0 -2.16,-0.07 -2.16,-0.07 0.03,0.57 -0.06,1.02 -0.27,1.34 -0.2,0.32 -0.48,0.58 -0.85,0.79 -0.31,0.16 -0.77,0.27 -1.39,0.35 -0.61,0.07 -1.19,0.09 -1.73,0.07 0,0 0.34,2.6 0.34,2.6 0,0 3.9,0.1 3.9,0.1 0,0 0.82,8.21 0.82,8.21 0,0 -3.62,-0.03 -3.62,-0.03 0,0 0.29,2.15 0.29,2.15 0,0 9.37,0.07 9.37,0.07 0,0 -0.1,-2.12 -0.1,-2.12 z"
         inkscape:connector-curvature="0" />
      <path
         id="d20_19"
         style="fill:#e6e6e6;fill-opacity:1;stroke:none;stroke-opacity:1"
         d="m 699.71,119.73 c 0.12,0.11 0.21,0.2 0.28,0.28 0.07,0.07 0.15,0.14 0.22,0.21 -0.01,0.39 -0.07,0.77 -0.18,1.13 -0.11,0.35 -0.26,0.68 -0.45,0.97 -0.15,0.23 -0.31,0.43 -0.47,0.6 -0.17,0.17 -0.36,0.28 -0.58,0.34 -0.32,0.07 -0.62,0.06 -0.9,-0.03 -0.29,-0.11 -0.61,-0.33 -0.95,-0.64 -0.6,-0.55 -0.96,-1.13 -1.08,-1.73 -0.13,-0.59 -0.03,-1.15 0.31,-1.67 0.15,-0.22 0.32,-0.4 0.52,-0.53 0.2,-0.14 0.43,-0.21 0.71,-0.23 0.31,-0.03 0.67,0.05 1.09,0.25 0.42,0.19 0.91,0.54 1.48,1.05 0,0 0,0 0,0 z m 1.65,-0.74 c -1.05,-0.93 -1.95,-1.6 -2.72,-2 -0.76,-0.4 -1.46,-0.61 -2.09,-0.65 -0.51,-0.03 -0.96,0.07 -1.37,0.29 -0.4,0.21 -0.74,0.52 -1.02,0.95 -0.56,0.85 -0.69,1.89 -0.4,3.12 0.28,1.23 0.98,2.36 2.08,3.39 0.64,0.59 1.24,1.01 1.81,1.27 0.58,0.25 1.13,0.34 1.66,0.28 0.44,-0.06 0.81,-0.19 1.09,-0.39 0.28,-0.23 0.53,-0.52 0.76,-0.88 0.24,-0.38 0.41,-0.78 0.5,-1.21 0.08,-0.43 0.1,-0.96 0.05,-1.57 1.05,1.08 1.73,2.16 2.05,3.25 0.31,1.09 0.17,2.09 -0.4,3 -0.17,0.27 -0.32,0.51 -0.46,0.74 -0.14,0.22 -0.25,0.39 -0.33,0.51 0,0 -0.03,0.06 -0.03,0.06 0,0 1.67,1.55 1.67,1.55 0.17,-0.09 0.33,-0.21 0.5,-0.38 0.15,-0.17 0.3,-0.37 0.44,-0.59 0.5,-0.81 0.78,-1.66 0.82,-2.55 0.03,-0.89 -0.13,-1.79 -0.49,-2.72 -0.34,-0.91 -0.86,-1.82 -1.57,-2.75 -0.7,-0.92 -1.56,-1.83 -2.55,-2.72 0,0 0,0 0,0 z m -0.22,12.38 c 0,0 -1.4,2.24 -1.4,2.24 0,0 -9.91,-9.44 -9.91,-9.44 0,0 -0.75,1.15 -0.75,1.15 0.35,0.36 0.59,0.71 0.73,1.05 0.12,0.32 0.19,0.66 0.2,1.01 -0.01,0.29 -0.09,0.63 -0.25,1.03 -0.16,0.4 -0.34,0.74 -0.53,1.03 0,0 1.76,1.72 1.76,1.72 0,0 1.42,-2.18 1.42,-2.18 0,0 6.38,6.13 6.38,6.13 0,0 -1.42,2.26 -1.42,2.26 0,0 1.88,1.83 1.88,1.83 0,0 3.77,-6.06 3.77,-6.06 0,0 -1.88,-1.77 -1.88,-1.77 z"
         inkscape:connector-curvature="0" />
      <path
         id="d20_20"
         style="fill:#e6e6e6;fill-opacity:1;stroke:none;stroke-opacity:1"
         d="m 674.33,144.45 c -0.25,0.52 -0.61,0.91 -1.08,1.18 -0.47,0.25 -1.05,0.37 -1.75,0.37 -0.75,0 -1.35,-0.14 -1.81,-0.41 -0.45,-0.27 -0.79,-0.66 -1.03,-1.17 -0.27,-0.54 -0.45,-1.15 -0.53,-1.84 -0.09,-0.69 -0.13,-1.54 -0.13,-2.56 0,-0.94 0.05,-1.8 0.14,-2.58 0.09,-0.78 0.27,-1.41 0.52,-1.89 0.27,-0.52 0.63,-0.91 1.09,-1.16 0.47,-0.26 1.05,-0.39 1.75,-0.39 0.71,0 1.29,0.13 1.73,0.39 0.46,0.25 0.82,0.63 1.08,1.14 0.27,0.51 0.46,1.14 0.55,1.88 0.09,0.73 0.14,1.58 0.14,2.57 0,1.01 -0.05,1.88 -0.14,2.6 -0.09,0.72 -0.27,1.34 -0.53,1.87 0,0 0,0 0,0 z m 2.67,-4.47 c 0,-2.67 -0.44,-4.67 -1.33,-6 -0.87,-1.32 -2.26,-1.98 -4.17,-1.98 -1.89,0 -3.28,0.65 -4.17,1.95 -0.89,1.31 -1.33,3.33 -1.33,6.07 0,2.7 0.44,4.71 1.31,6.03 0.89,1.3 2.28,1.95 4.19,1.95 1.88,0 3.26,-0.65 4.16,-1.94 0.89,-1.29 1.34,-3.32 1.34,-6.08 0,0 0,0 0,0 z M 663,146 c 0,0 -8.03,0 -8.03,0 0.62,-0.58 1.3,-1.21 2.01,-1.89 0.73,-0.69 1.44,-1.39 2.13,-2.11 0.47,-0.51 0.87,-0.97 1.2,-1.39 0.34,-0.42 0.63,-0.84 0.88,-1.27 0.27,-0.45 0.47,-0.93 0.61,-1.43 0.13,-0.51 0.2,-1.07 0.2,-1.66 0,-1.3 -0.43,-2.33 -1.3,-3.09 -0.85,-0.77 -2.03,-1.16 -3.54,-1.16 -0.74,0 -1.5,0.1 -2.28,0.3 -0.79,0.18 -1.41,0.39 -1.88,0.62 0,0 0,2.08 0,2.08 0,0 0.09,0 0.09,0 0.68,-0.33 1.37,-0.58 2.07,-0.75 0.7,-0.17 1.36,-0.25 1.95,-0.25 0.92,0 1.62,0.22 2.12,0.67 0.51,0.44 0.77,1.05 0.77,1.85 0,0.86 -0.22,1.67 -0.67,2.42 -0.45,0.74 -1.28,1.74 -2.49,3 -0.57,0.6 -1.19,1.21 -1.86,1.83 -0.66,0.6 -1.32,1.21 -1.98,1.82 0,0 0,2.41 0,2.41 0,0 10,0 10,0 0,0 0,-2 0,-2 z"
         inkscape:connector-curvature="0" />
      <path
         id="d20_14"
         style="fill:#e6e6e6;fill-opacity:1;stroke:none;stroke-opacity:1"
         d="m 636.32,180.72 c 0,0 -2.34,-1.52 -2.34,-1.52 0,0 -0.68,-8.06 -0.68,-8.06 0,0 -1.18,-0.71 -1.18,-0.71 0.01,0.28 -0.04,0.47 -0.16,0.57 -0.11,0.09 -0.27,0.13 -0.47,0.12 -0.18,-0.03 -0.43,-0.12 -0.77,-0.27 -0.33,-0.16 -0.64,-0.33 -0.93,-0.51 0,0 0.1,1.4 0.1,1.4 0,0 2.17,1.34 2.17,1.34 0,0 0.4,5.13 0.4,5.13 0,0 -2.24,-1.45 -2.24,-1.45 0,0 0.1,1.48 0.1,1.48 0,0 6.15,4.05 6.15,4.05 0,0 -0.15,-1.57 -0.15,-1.57 z m 3.46,-0.7 c 0,0 2.39,-1.3 2.39,-1.3 0,0 0.37,3.04 0.37,3.04 0,0 -2.76,-1.74 -2.76,-1.74 z m 6.21,3.92 c 0,0 -1.74,-1.1 -1.74,-1.1 0,0 -0.72,-5.56 -0.72,-5.56 0,0 -1.59,-0.96 -1.59,-0.96 0,0 -4.32,2.38 -4.32,2.38 0,0 0.15,1.49 0.15,1.49 0,0 4.96,3.19 4.96,3.19 0,0 0.4,3.3 0.4,3.3 0,0 1.76,1.16 1.76,1.16 0,0 -0.43,-3.36 -0.43,-3.36 0,0 1.76,1.13 1.76,1.13 0,0 -0.23,-1.67 -0.23,-1.67 z"
         inkscape:connector-curvature="0" />
      <path
         id="d20_16"
         style="fill:#e6e6e6;fill-opacity:1;stroke:none;stroke-opacity:1"
         d="m 636.19,131.49 c -0.78,0.63 -1.46,0.92 -2.02,0.86 -0.54,-0.07 -0.92,-0.47 -1.13,-1.18 -0.09,-0.31 -0.13,-0.63 -0.1,-0.98 0.02,-0.33 0.11,-0.7 0.25,-1.08 0.18,-0.47 0.46,-0.95 0.84,-1.43 0.39,-0.48 0.96,-1 1.7,-1.56 0.14,-0.1 0.26,-0.19 0.35,-0.26 0.1,-0.07 0.2,-0.13 0.31,-0.2 0.29,0.21 0.54,0.45 0.74,0.72 0.2,0.27 0.36,0.6 0.48,0.99 0.09,0.29 0.15,0.57 0.19,0.87 0.03,0.3 0.02,0.62 -0.05,0.95 -0.12,0.46 -0.3,0.87 -0.54,1.22 -0.25,0.37 -0.58,0.73 -1.02,1.08 0,0 0,0 0,0 z m 0.69,1.81 c 0.83,-0.68 1.48,-1.37 1.97,-2.07 0.49,-0.68 0.85,-1.39 1.07,-2.12 0.19,-0.64 0.28,-1.17 0.27,-1.6 -0.02,-0.44 -0.1,-0.88 -0.25,-1.35 -0.16,-0.51 -0.39,-0.9 -0.67,-1.18 -0.28,-0.27 -0.64,-0.5 -1.06,-0.68 1.29,-0.85 2.39,-1.23 3.3,-1.16 0.92,0.08 1.55,0.63 1.9,1.67 0.1,0.29 0.19,0.57 0.28,0.84 0.09,0.28 0.17,0.49 0.21,0.63 0,0 0.03,0.07 0.03,0.07 0,0 1.75,-1.43 1.75,-1.43 0.01,-0.27 0,-0.52 -0.04,-0.75 -0.04,-0.21 -0.11,-0.47 -0.21,-0.75 -0.31,-0.92 -0.76,-1.57 -1.33,-1.98 -0.58,-0.41 -1.26,-0.59 -2.04,-0.55 -0.82,0.05 -1.71,0.29 -2.67,0.74 -0.97,0.45 -2.06,1.12 -3.29,2.01 -1.22,0.9 -2.24,1.8 -3.07,2.7 -0.83,0.91 -1.47,1.81 -1.89,2.7 -0.36,0.72 -0.59,1.42 -0.69,2.11 -0.1,0.67 -0.06,1.32 0.11,1.94 0.35,1.22 1.14,1.87 2.35,1.92 1.2,0.06 2.53,-0.52 3.97,-1.71 0,0 0,0 0,0 z m -5.66,-8.32 c 0,0 -0.79,-2.72 -0.79,-2.72 0,0 11.8,-8.07 11.8,-8.07 0,0 -0.44,-1.25 -0.44,-1.25 -0.4,0.25 -0.75,0.39 -1.05,0.41 -0.28,0.02 -0.54,-0.03 -0.78,-0.15 -0.19,-0.11 -0.39,-0.33 -0.58,-0.65 -0.19,-0.33 -0.34,-0.65 -0.44,-0.96 0,0 -2.03,1.29 -2.03,1.29 0,0 0.79,2.41 0.79,2.41 0,0 -7.8,5.18 -7.8,5.18 0,0 -0.77,-2.63 -0.77,-2.63 0,0 -2.43,1.55 -2.43,1.55 0,0 2.07,7.34 2.07,7.34 0,0 2.45,-1.75 2.45,-1.75 z"
         inkscape:connector-curvature="0" />
    </g>
  </g>
  <g
     inkscape:groupmode="layer"
     id="layer4"
     inkscape:label="epees"
     style="display:inline;stroke-width:2.82429873;stroke-miterlimit:4;stroke-dasharray:none">
    <path
       style="fill:url(#linearGradient5851);fill-opacity:1;stroke:#000000;stroke-opacity:1;stroke-width:2.82429873;stroke-miterlimit:4;stroke-dasharray:none"
       d="M 677.34697,579.4273 218.67,240 c 0,0 -36.17,-2 -36.17,-2.25 0,0.25 4.17,23.58 4.17,23.58 l 460.37,347.8 c 6.50321,-5.08401 13.6553,-9.38822 27.05191,-6.18797 -2.53443,-11.47836 0.19718,-18.15157 3.25506,-23.51473 z"
       id="path5262"
       inkscape:connector-curvature="0"
       sodipodi:nodetypes="ccccccc" />
    <path
       style="fill:url(#linearGradient5843);fill-opacity:1;stroke:#000000;stroke-opacity:1;stroke-width:2.82429873;stroke-miterlimit:4;stroke-dasharray:none"
       d="m 319.63,580.38 425.82,-344.02 27.64,-6.18 -0.36,22.55 c 0,0 -422.55,358.29 -422.48,358.27 -4.59328,-3.9515 -8.71943,-8.57901 -26.31282,-6.50044 C 326.42777,587.82182 322.7998,584.6049 319.63,580.38 z"
       id="path5266"
       inkscape:connector-curvature="0"
       sodipodi:nodetypes="ccccccc" />
    <path
       style="fill:none;stroke:#000000;stroke-opacity:1;stroke-width:2.82429873;stroke-miterlimit:4;stroke-dasharray:none"
       d="m 197.81,250.31 c 0,0 452.19,333.19 452.19,333.19 2.58,5.99 -1.83,6.65 -2,6.25"
       id="path"
       inkscape:connector-curvature="0" />
    <path
       style="fill:none;stroke:#000000;stroke-opacity:1;stroke-width:2.82429873;stroke-miterlimit:4;stroke-dasharray:none"
       d="m 762.25,243 c 0,0 -418.75,342.75 -418.75,342.75 -3.08,2.75 -1.75,9.93 1.75,8.75"
       id="path5264"
       inkscape:connector-curvature="0" />
    <path
       style="fill:url(#radialGradient5792);stroke:#000000;stroke-opacity:1;fill-opacity:1;stroke-width:2.82429873;stroke-miterlimit:4;stroke-dasharray:none"
       d="m 702.75,598.75 c 6.39,-2.78 53.77,46.21 44.5,56 25.75,-1.5 34,14.25 33.11,32.34 C 778,704 766.5,711.25 750.5,709.5 729,702.75 726,683 728.7,673.65 715,680.75 666.75,637.75 669.5,632"
       id="path5278"
       inkscape:connector-curvature="0" />
    <path
       style="fill:url(#radialGradient5835);stroke:#000000;stroke-opacity:1;fill-opacity:1;stroke-width:2.82429873;stroke-miterlimit:4;stroke-dasharray:none"
       d="m 295.25,600.75 c -6.39,-2.78 -53.77,46.21 -44.5,56 -25.75,-1.5 -34,14.25 -33.11,32.34 2.36,16.91 13.86,24.16 29.86,22.41 21.5,-6.75 24.5,-26.5 21.8,-35.85 13.7,7.1 61.95,-35.9 59.2,-41.65"
       id="path5270"
       inkscape:connector-curvature="0" />
    <path
       style="fill:none;stroke:#000000;stroke-opacity:1;stroke-width:2.82429873;stroke-miterlimit:4;stroke-dasharray:none"
       d="m 250.78,656.78 c 10.22,1.97 15.72,7.47 18.52,18.79"
       id="path5268"
       inkscape:connector-curvature="0" />
    <path
       style="fill:none;stroke:#000000;stroke-opacity:1;stroke-width:2.82429873;stroke-miterlimit:4;stroke-dasharray:none"
       d="m 247.72,694.69 c -7.11,2.43 -15.78,-5.23 -7.09,-14.61 14.9,-4.43 15.49,11.74 7.09,14.61 z"
       id="path5274"
       inkscape:connector-curvature="0" />
    <path
       style="fill:none;stroke:#000000;stroke-opacity:1;fill-opacity:1;stroke-width:2.82429873;stroke-miterlimit:4;stroke-dasharray:none"
       d="m 750.28,692.69 c 7.11,2.43 15.78,-5.23 7.09,-14.61 -14.9,-4.43 -15.49,11.74 -7.09,14.61 z"
       id="path5282"
       inkscape:connector-curvature="0" />
    <path
       style="fill:none;stroke:#000000;stroke-opacity:1;fill-opacity:1;stroke-width:2.82429873;stroke-miterlimit:4;stroke-dasharray:none"
       d="M 747.22,654.78 C 737,656.75 731.5,662.25 728.7,673.57"
       id="path5276"
       inkscape:connector-curvature="0" />
    <path
       style="fill:url(#linearGradient5773);stroke:#000000;stroke-opacity:1;fill-opacity:1;stroke-width:2.82429873;stroke-miterlimit:4;stroke-dasharray:none"
       d="m 324,604.73 c 6.75,-1.48 17.82,-2.18 26.18,6.18 12.2,18.34 20.57,31.97 36.37,34.54 3.95,-0.2 5.7,-2.45 5.81,-4.72 -12.36,9.77 -13.86,-8.98 -0.72,-10.91 7.11,0.43 12.36,2.18 17.81,12.36 1.8,7.07 -8.2,16.57 -15.63,18.91 -3.82,2.66 -22.57,4.41 -31.27,0 -11.42,-1.09 -91.92,-81.96 -92.73,-92.73 -2.82,-6.86 -3.32,-13.61 -1.09,-27.63 3.4,-8.48 10.15,-13.35 19.27,-14.91 7,-0.32 19.47,4.16 20.73,15.63 -3.6,16.55 -29.73,5.3 -13.46,-2.18 -4.89,1.48 -7.25,2.76 -7.27,7.48 1.27,16 20,26.16 31.64,33.61 5.45,5.46 5.86,17.77 4.36,24.37 z"
       id="path5272"
       inkscape:connector-curvature="0" />
    <path
       style="fill:url(#linearGradient5763);stroke:#000000;stroke-opacity:1;fill-opacity:1;stroke-width:2.82429873;stroke-miterlimit:4;stroke-dasharray:none"
       d="m 674,602.73 c -6.75,-1.48 -17.82,-2.18 -26.18,6.18 -12.19,18.34 -20.57,31.97 -36.37,34.54 -3.95,-0.2 -5.7,-2.45 -5.81,-4.72 12.36,9.77 13.86,-8.98 0.72,-10.91 -7.11,0.43 -12.36,2.18 -17.81,12.36 -1.8,7.07 8.2,16.57 15.63,18.91 3.82,2.66 22.57,4.41 31.27,0 11.43,-1.09 91.93,-81.96 92.73,-92.73 2.82,-6.86 3.32,-13.61 1.09,-27.63 -3.39,-8.48 -10.14,-13.35 -19.27,-14.91 -7,-0.32 -19.47,4.16 -20.73,15.63 3.61,16.55 29.73,5.3 13.46,-2.18 4.9,1.48 7.25,2.76 7.27,7.48 -1.27,16 -20,26.16 -31.64,33.61 -5.45,5.46 -5.86,17.77 -4.36,24.37 z"
       id="path5280"
       inkscape:connector-curvature="0" />
  </g>
  <g
     inkscape:groupmode="layer"
     id="layer5"
     inkscape:label="blason"
     style="display:inline;stroke-width:3.22776998;stroke-miterlimit:4;stroke-dasharray:none">
    <path
       style="fill:#008000;stroke:#000000;stroke-opacity:1;stroke-width:3.22776998;stroke-miterlimit:4;stroke-dasharray:none"
       d="M 358.60367,352.1151 C 355.37703,331.02665 345.07341,328.46229 332.52,336.52 c -0.13,-0.16 -3.56,5.91 -3.74,12.26 -0.43,5.39 2.85,14.6 8.18,20.35 4.29,3.49 7.67,3.62 10.92,2.87 4.36,-0.95 7.25,-2.62 7.6,-7.3 -0.31,-4.63 -3.48,-7.07 -7.65,-7.22 -4.45,0.15 -5.08,4.52 -3.4,7.56 1.95,4.71 4.45,5.84 9.82,3.34"
       id="path5284"
       inkscape:connector-curvature="0"
       sodipodi:nodetypes="ccccccccc" />
    <path
       style="fill:#008000;stroke:#000000;stroke-opacity:1;stroke-width:3.22776998;stroke-miterlimit:4;stroke-dasharray:none"
       d="m 613.49819,348.63096 c 19.27623,-18.25883 22.31563,-13.3222 30.25181,-15.38096 9.5,6.25 5.5,15.5 2,20.75 -5.5,7.88 -11.25,8 -17.25,7.5 -4.75,-2 -5,-3.25 -5,-7 5.25,-8 9.5,-7.25 13.25,-5 2.75,5 1,7.5 -2.62,11.88"
       id="path5292"
       inkscape:connector-curvature="0"
       sodipodi:nodetypes="ccccccc" />
    <path
       style="fill:url(#radialGradient5707);fill-opacity:1;stroke:#000000;stroke-width:4.03471561;stroke-opacity:1;stroke-miterlimit:4;stroke-dasharray:none"
       d="m 644.125,343.6875 c -9.91433,0.12473 -18.08203,5.40936 -24.125,20.125 -11.37501,-27.70002 -34.08748,-19.26876 -57.9375,-8.59375 -26.87502,5.625 -62.06249,7.90626 -80.8125,-5.84375 l -65.625,71.25 c 45.00004,26.25002 57.50004,109.99998 1.875,130 6.25,1.25 30,39.99999 31.25,56.25 -0.625,72.50006 9.37492,119.37497 106.875,158.125 15.62501,5.625 64.15,35.32498 64.375,60.625 0.225,-25.30002 48.74999,-55 64.375,-60.625 87.28757,-50.83754 97.09375,-87.49994 96.46875,-160 1.25,-16.25001 19.5625,-59.59375 25.8125,-60.84375 C 766.75622,528.83124 752.96246,446.45627 805,416.65625 L 742.5,347.5 c -18.75001,13.75001 -41.46873,10.625 -68.34375,5 -11.1797,-5.00391 -21.28331,-8.92256 -30.03125,-8.8125 z"
       transform="matrix(0.79999938,0,0,0.79999938,0,-2.8124978e-5)"
       id="path5290"
       inkscape:connector-curvature="0"
       inkscape:transform-center-y="20.161306" />
    <path
       inkscape:transform-center-y="20.161306"
       inkscape:connector-curvature="0"
       id="path5709"
       transform="matrix(0.79999938,0,0,0.79999938,0,-2.8124978e-5)"
       d="m 644.125,343.6875 c -9.91433,0.12473 -18.08203,5.40936 -24.125,20.125 -11.37501,-27.70002 -34.08748,-19.26876 -57.9375,-8.59375 -26.87502,5.625 -62.06249,7.90626 -80.8125,-5.84375 l -65.625,71.25 c 45.00004,26.25002 57.50004,109.99998 1.875,130 6.25,1.25 30,39.99999 31.25,56.25 -0.625,72.50006 9.37492,119.37497 106.875,158.125 15.62501,5.625 64.15,35.32498 64.375,60.625 0.225,-25.30002 48.74999,-55 64.375,-60.625 87.28757,-50.83754 97.09375,-87.49994 96.46875,-160 1.25,-16.25001 19.5625,-59.59375 25.8125,-60.84375 C 766.75622,528.83124 752.96246,446.45627 805,416.65625 L 742.5,347.5 c -18.75001,13.75001 -41.46873,10.625 -68.34375,5 -11.1797,-5.00391 -21.28331,-8.92256 -30.03125,-8.8125 z"
       style="fill:url(#linearGradient5719);fill-opacity:1;stroke:#000000;stroke-width:4.03471561;stroke-opacity:1;stroke-miterlimit:4;stroke-dasharray:none" />
  </g>
  <g
     inkscape:groupmode="layer"
     id="layer6"
     inkscape:label="etoiles"
     style="display:inline;stroke-width:2.01735624;stroke-miterlimit:4;stroke-dasharray:none">
    <path
       transform="matrix(0.79999938,0,0,0.79999938,2.4972914e-7,-2.1932874)"
       style="fill:url(#radialGradient5741);fill-opacity:1;fill-rule:nonzero;stroke:#000000;stroke-linecap:square;stroke-linejoin:bevel;stroke-opacity:1;stroke-width:2.52169725;stroke-miterlimit:4;stroke-dasharray:none"
       d="m 517.64028,507.15045 c 0,0 0.086,0.11274 -0.13763,0.72646 -0.22358,0.61372 -0.67074,1.84115 -0.67074,1.84115 -1.11791,3.06859 -2.23581,6.13718 -3.35372,9.20577 l -0.67074,1.84115 c -3.89603,10.69434 -7.03042,19.29819 -10.73189,29.45845 l -0.67074,1.84115 1.2689,-1.62341 c 13.25395,-16.95722 26.85778,-34.36149 38.06685,-48.70239 l 1.2689,-1.62341 1.2689,-1.62341 1.26889,-1.62342 c 4.80956,-6.1533 8.54097,-10.92722 12.68895,-16.23412 l 1.2689,-1.62342 c 7.71981,-9.87662 14.77214,-18.89937 21.57122,-27.59801 l 1.26889,-1.62342 1.2689,-1.62341 -1.62484,1.09527 -1.62485,1.09527 c -9.05852,6.10616 -16.07412,10.8352 -24.37267,16.42907 l -0.93946,0.54695 m -46.81108,31.60364 -0.99481,0.70755 c -8.66585,5.84143 -17.33167,11.68291 -25.99752,17.52434 l -1.62484,1.09527 1.98078,-0.56753 c 12.34411,-3.53683 23.21982,-6.65294 33.67319,-9.64802 l 1.98077,-0.56753 1.98078,-0.56753 1.98077,-0.56753 c 6.68341,-1.91493 13.68947,-3.92231 19.80776,-5.67531 l 1.98078,-0.56753 1.98078,-0.56753 c 19.05959,-5.46096 41.14159,-11.78785 59.42327,-17.02592 l 1.98078,-0.56753 -1.95831,-0.069 c -10.44433,-0.368 -20.88865,-0.736 -31.33298,-1.104 l -1.95831,-0.069 c -3.91662,-0.138 -7.83325,-0.276 -11.74987,-0.414 l -0.79314,-4.6e-4 m -29.74468,-1.13147 -0.79516,0.0279 c -3.91662,-0.138 -7.83325,-0.276 -11.74987,-0.414 l -1.95831,-0.069 -1.95831,-0.069 c -10.44433,-0.368 -20.88865,-0.736 -31.33298,-1.104 10.32569,3.76069 20.65139,7.52137 30.97708,11.28206 9.70023,3.5329 19.91187,7.25204 29.04101,10.57694 l 1.93607,0.70512 1.93607,0.70513 c 7.18774,2.61784 12.60391,4.59043 19.36067,7.05129 l 1.93607,0.70513 1.93607,0.70513 c 12.64091,4.60391 25.8817,9.42629 36.78528,13.39745 l -1.54377,-1.20686 c -8.94204,-6.99055 -15.93615,-12.45831 -24.70031,-19.30979 l -0.71987,-0.72221 m -44.72796,-34.8099 -0.86526,-0.67375 -1.54377,-1.20686 c -6.68967,-5.22973 -13.37933,-10.45947 -20.069,-15.6892 l -1.54377,-1.20687 -1.54377,-1.20686 -1.54377,-1.20686 1.15185,1.70845 1.15184,1.70846 c 6.34336,9.40859 11.94738,17.72074 18.42956,27.33525 l 1.15184,1.70845 1.15185,1.70846 1.15185,1.70845 c 3.55922,5.27914 7.29487,10.81998 10.36662,15.37608 l 1.15185,1.70845 1.15184,1.70845 1.15185,1.70846 1.15185,1.70845 c 11.05128,16.39154 21.56494,31.9858 32.25172,47.83669 l 1.15184,1.70846 1.15185,1.70845 -0.53956,-1.88378 -0.53956,-1.88377 c -2.98576,-10.42423 -5.54613,-19.36336 -8.0934,-28.25665 l -0.53956,-1.88378 c -1.07912,-3.76755 -2.15824,-7.53511 -3.23736,-11.30266 l -0.24877,-0.6237 m -8.18734,-28.66104 -0.19686,-0.85569 -0.53956,-1.88378 c -0.89927,-3.13963 -1.79854,-6.27925 -2.6978,-9.41888 l -0.53956,-1.88378 c -3.01139,-10.51366 -6.12292,-21.37712 -8.63296,-30.14042 l -0.53955,-1.88377 -0.0723,2.05921 c -0.33939,9.66635 -0.70692,20.13406 -1.0122,28.82889 -0.36247,10.32366 -0.75134,21.39927 -1.0845,30.8881 l -0.0723,2.0592 -0.0723,2.05921 -0.0723,2.05921 -0.0723,2.0592 c -0.24089,6.8609 -0.42245,12.03193 -0.6507,18.53286 l -0.0723,2.05921 -0.0723,2.05921 c -0.4459,12.69995 -0.9261,26.37647 -1.3014,37.06571 l -0.0723,2.05921 0.67074,-1.84115 c 3.59858,-9.87785 7.48717,-20.55197 10.73189,-29.45845 l 0.39658,-1.12149 m 19.32912,-53.16296 0.39658,-0.95014 c 3.69438,-10.14088 6.49933,-17.84029 10.06114,-27.61729 l 0.67075,-1.84116 0.67074,-1.84115 -1.2689,1.62341 -1.26889,1.62342 c -8.38576,10.72868 -16.46739,21.0682 -24.10901,30.84484 -3.84976,4.92532 -7.89563,10.10161 -11.42006,14.61071 l -1.26889,1.62342 -1.2689,1.62341 -1.2689,1.62341 c -13.20091,16.88924 -26.17211,33.48424 -38.06685,48.70239 l -1.2689,1.62341 1.62484,-1.09527 c 9.34577,-6.29977 17.76533,-11.9752 25.99752,-17.52434 l 1.62485,-1.09527 c 3.24969,-2.19055 6.49938,-4.38109 9.74907,-6.57163 l 0.63102,-0.44415 m 24.71094,-16.61496 0.65555,-0.46523 c 3.24969,-2.19054 6.49938,-4.38108 9.74907,-6.57163 l 1.62485,-1.09527 c 8.91745,-6.01104 18.29338,-12.33117 25.99752,-17.52434 l 1.62484,-1.09527 -1.98078,0.56753 c -19.71642,5.64915 -39.64132,11.35799 -59.42327,17.02592 l -1.98078,0.56753 -1.98078,0.56753 c -7.59576,2.17633 -12.78526,3.66323 -19.80776,5.67531 l -1.98077,0.56753 -1.98078,0.56753 -1.98077,0.56753 c -11.43175,3.27541 -23.28414,6.67135 -33.67319,9.64802 l -1.98078,0.56753 1.95831,0.069 c 11.68016,0.41154 20.38772,0.71835 31.33298,1.104 l 1.11019,0.0448 m 56.45627,2.00469 1.18289,0.0205 1.95831,0.069 c 10.44433,0.368 20.88865,0.736 31.33298,1.104 -13.60106,-4.9536 -24.47779,-8.91497 -36.78529,-13.39745 l -1.93606,-0.70513 -1.93607,-0.70513 c -6.59715,-2.40273 -13.62224,-4.96132 -19.36068,-7.05129 l -1.93606,-0.70513 -1.93607,-0.70513 c -9.96331,-3.6287 -18.70308,-6.81179 -29.04102,-10.57694 -10.3257,-3.76068 -20.65139,-7.52137 -30.97708,-11.28206 9.73156,7.60776 17.38876,13.5939 26.24408,20.51665 l 1.54377,1.20686 1.54377,1.20687 c 2.6899,2.10286 5.04052,3.94048 7.71885,6.0343 l 0.38062,0.28604 m 23.66693,18.46801 0.65276,0.55574 c 3.08753,2.41374 6.17509,4.82745 9.26262,7.24118 l 1.54377,1.20686 c 7.20426,5.63202 14.40851,11.26405 21.61277,16.89606 l 1.54377,1.20687 1.54377,1.20686 1.54377,1.20686 -1.15185,-1.70845 -1.15184,-1.70846 c -11.34703,-16.83019 -21.38251,-31.71523 -32.25172,-47.83669 l -1.15185,-1.70845 -1.15185,-1.70846 -1.15184,-1.70845 -1.15185,-1.70845 c -3.79312,-5.62608 -6.93864,-10.29157 -10.36662,-15.37608 l -1.15185,-1.70845 -1.15185,-1.70846 -1.15184,-1.70845 c -6.17971,-9.16591 -12.85754,-19.0707 -18.42956,-27.33525 l -1.15184,-1.70846 -1.15185,-1.70845 0.53956,1.88378 0.53956,1.88377 c 2.97173,10.37525 5.5395,19.34018 8.0934,28.25665 l 0.29967,1.11271 m 15.58747,54.27075 0.29967,1.12985 c 2.97142,10.37413 5.59651,19.53924 8.63296,30.14042 l 0.53956,1.88378 0.0723,-2.05921 c 0.46648,-13.28602 0.85164,-24.25585 1.3014,-37.06571 l 0.0723,-2.05921 0.0723,-2.05921 c 0.22129,-6.30271 0.45777,-13.03796 0.6507,-18.53286 l 0.0723,-2.0592 0.0723,-2.05921 0.0723,-2.05921 0.0723,-2.0592 c 0.36017,-10.2581 0.70891,-20.19075 1.0845,-30.8881 0.35071,-9.98859 0.65537,-18.66582 1.0122,-28.82889 l 0.0723,-2.05921 -0.67074,1.84115 c -3.59856,9.87785 -7.48721,20.55196 -10.73189,29.45845 l -0.67074,1.84115 c -1.34149,3.68231 -2.68298,7.36461 -4.02446,11.04692 l -0.28302,0.87186"
       id="path4087"
       inkscape:connector-curvature="0"
       sodipodi:nodetypes="cscccccccccccccccccccccccccccccccccccccccccccccccccccccccccccccccccccccccccccccccccccccccccccccccccccccccccccccccccccccccccccccccccccccccccccccccccccccccccccccccccccccccccccccccccccccccccccccccccccccccccccccc" />
    <path
       sodipodi:nodetypes="cscccccccccccccccccccccccccccccccccccccccccccccccccccccccccccccccccccccccccccccccccccccccccccccccccccccccccccccccccccccccccccccccccccccccccccccccccccccccccccccccccccccccccccccccccccccccccccccccccccccccccccccc"
       inkscape:connector-curvature="0"
       id="path5747"
       d="m 535.7119,403.52676 c 0,0 0.0688,0.0902 -0.1101,0.58117 -0.17887,0.49097 -0.53659,1.47291 -0.53659,1.47291 -0.89433,2.45487 -1.78865,4.90974 -2.68298,7.36461 l -0.53659,1.47292 c -3.11682,8.55547 -5.62433,15.43854 -8.5855,23.56675 l -0.5366,1.47291 1.01512,-1.29872 c 10.60316,-13.56577 21.48621,-27.48917 30.45346,-38.96188 l 1.01512,-1.29873 1.01512,-1.29873 1.01511,-1.29873 c 3.84764,-4.92264 6.83277,-8.74177 10.15115,-12.98729 l 1.01512,-1.29873 c 6.17584,-7.90129 11.8177,-15.11949 17.25696,-22.0784 l 1.01511,-1.29873 1.01512,-1.29873 -1.29987,0.87622 -1.29988,0.87621 c -7.24681,4.88493 -12.85928,8.66816 -19.49812,13.14325 l -0.75156,0.43756 m -37.44884,25.28289 -0.79585,0.56604 c -6.93267,4.67314 -13.86532,9.34632 -20.798,14.01946 l -1.29987,0.87622 1.58463,-0.45403 c 9.87528,-2.82946 18.57584,-5.32234 26.93853,-7.71841 l 1.58461,-0.45402 1.58462,-0.45402 1.58462,-0.45403 c 5.34672,-1.53194 10.95157,-3.13784 15.84619,-4.54024 l 1.58463,-0.45403 1.58462,-0.45402 c 15.24766,-4.36876 32.91325,-9.43027 47.53858,-13.62072 l 1.58462,-0.45403 -1.56665,-0.0552 c -8.35545,-0.2944 -16.7109,-0.5888 -25.06636,-0.8832 l -1.56665,-0.0552 c -3.13329,-0.1104 -6.26659,-0.2208 -9.39989,-0.3312 l -0.63451,-3.7e-4 m -23.79572,-0.90517 -0.63613,0.0223 c -3.13329,-0.1104 -6.26659,-0.2208 -9.39989,-0.3312 l -1.56665,-0.0552 -1.56664,-0.0552 c -8.35546,-0.2944 -16.71091,-0.5888 -25.06637,-0.8832 8.26055,3.00855 16.5211,6.01709 24.78165,9.02564 7.76018,2.82632 15.92948,5.80163 23.23279,8.46155 l 1.54885,0.56409 1.54886,0.56411 c 5.75019,2.09427 10.08312,3.67234 15.48852,5.64102 l 1.54886,0.56411 1.54885,0.5641 c 10.11272,3.68313 20.70535,7.54103 29.4282,10.71795 l -1.23501,-0.96548 c -7.15363,-5.59244 -12.74891,-9.96664 -19.76024,-15.44782 l -0.57589,-0.57777 m -35.78234,-27.8479 -0.69221,-0.539 -1.23501,-0.96549 c -5.35174,-4.18378 -10.70346,-8.36757 -16.05519,-12.55135 l -1.23502,-0.96549 -1.23501,-0.96549 -1.23502,-0.96549 0.92148,1.36676 0.92147,1.36677 c 5.07469,7.52686 9.5579,14.17658 14.74364,21.86818 l 0.92147,1.36676 0.92148,1.36677 0.92148,1.36676 c 2.84737,4.2233 5.83589,8.65597 8.29329,12.30085 l 0.92148,1.36676 0.92147,1.36676 0.92148,1.36677 0.92148,1.36675 c 8.84102,13.11323 17.25194,25.58862 25.80136,38.26933 l 0.92147,1.36676 0.92148,1.36676 -0.43165,-1.50702 -0.43165,-1.50702 c -2.38861,-8.33937 -4.4369,-15.49067 -6.47471,-22.6053 l -0.43165,-1.50702 c -0.8633,-3.01404 -1.72659,-6.02808 -2.58989,-9.04212 l -0.19901,-0.49896 m -6.54987,-22.92882 -0.15749,-0.68455 -0.43165,-1.50702 c -0.71941,-2.5117 -1.43883,-5.0234 -2.15823,-7.5351 l -0.43165,-1.50702 c -2.40911,-8.41092 -4.89833,-17.10168 -6.90636,-24.11232 l -0.43164,-1.50701 -0.0578,1.64736 c -0.27152,7.73308 -0.56554,16.10724 -0.80976,23.0631 -0.28998,8.25892 -0.60108,17.1194 -0.8676,24.71046 l -0.0578,1.64736 -0.0578,1.64736 -0.0578,1.64737 -0.0578,1.64736 c -0.19271,5.48872 -0.33796,9.62554 -0.52056,14.82628 l -0.0578,1.64736 -0.0578,1.64737 c -0.35672,10.15995 -0.74088,21.10116 -1.04112,29.65254 l -0.0578,1.64737 0.53659,-1.47292 c 2.87886,-7.90227 5.98973,-16.44156 8.58551,-23.56674 l 0.31726,-0.89719 m 15.46328,-42.53034 0.31727,-0.76011 c 2.9555,-8.11269 5.19946,-14.27222 8.0489,-22.09381 l 0.5366,-1.47293 0.53659,-1.47292 -1.01512,1.29873 -1.01511,1.29873 c -6.7086,8.58294 -13.1739,16.85455 -19.28719,24.67586 -3.07981,3.94025 -6.3165,8.08128 -9.13604,11.68856 l -1.01511,1.29873 -1.01512,1.29873 -1.01512,1.29873 c -10.56072,13.51138 -20.93767,26.78737 -30.45346,38.96188 l -1.01512,1.29872 1.29988,-0.87621 c 7.47661,-5.03981 14.21225,-9.58015 20.79799,-14.01946 l 1.29988,-0.87622 c 2.59975,-1.75244 5.1995,-3.50487 7.79925,-5.2573 l 0.50482,-0.35532 m 19.76874,-13.29195 0.52444,-0.37219 c 2.59975,-1.75243 5.1995,-3.50486 7.79925,-5.2573 l 1.29987,-0.87621 c 7.13396,-4.80883 14.6347,-9.86493 20.798,-14.01946 l 1.29988,-0.87622 -1.58463,0.45402 c -15.77312,4.51932 -31.71303,9.08639 -47.53858,13.62073 l -1.58462,0.45402 -1.58462,0.45403 c -6.07661,1.74106 -10.2282,2.93058 -15.8462,4.54024 l -1.58461,0.45402 -1.58463,0.45403 -1.58461,0.45402 c -9.14539,2.62033 -18.6273,5.33708 -26.93853,7.71841 l -1.58462,0.45403 1.56664,0.0552 c 9.34412,0.32923 16.31017,0.57467 25.06637,0.88319 l 0.88815,0.0358 m 45.16498,1.60376 0.94631,0.0164 1.56665,0.0552 c 8.35546,0.29439 16.7109,0.58879 25.06636,0.88319 -10.88084,-3.96287 -19.58221,-7.13197 -29.42821,-10.71795 l -1.54884,-0.5641 -1.54886,-0.5641 c -5.27771,-1.92219 -10.89778,-3.96906 -15.48853,-5.64103 l -1.54885,-0.56411 -1.54885,-0.5641 c -7.97064,-2.90296 -14.96245,-5.44943 -23.2328,-8.46154 -8.26055,-3.00855 -16.5211,-6.0171 -24.78164,-9.02565 7.78524,6.08621 13.91099,10.87512 20.99524,16.41331 l 1.23502,0.96549 1.23501,0.96549 c 2.15192,1.68229 4.03242,3.15239 6.17508,4.82744 l 0.30449,0.22883 m 18.93353,14.7744 0.52221,0.44459 c 2.47002,1.93099 4.94007,3.86196 7.41009,5.79294 l 1.23502,0.96549 c 5.7634,4.50561 11.5268,9.01123 17.2902,13.51683 l 1.23501,0.9655 1.23502,0.96549 1.23501,0.96548 -0.92148,-1.36675 -0.92147,-1.36677 c -9.07761,-13.46414 -17.10599,-25.37217 -25.80135,-38.26932 l -0.92148,-1.36676 -0.92148,-1.36677 -0.92147,-1.36676 -0.92148,-1.36676 c -3.0345,-4.50086 -5.55091,-8.23325 -8.29329,-12.30085 l -0.92148,-1.36676 -0.92148,-1.36677 -0.92147,-1.36676 c -4.94377,-7.33272 -10.28603,-15.25654 -14.74364,-21.86818 l -0.92147,-1.36677 -0.92148,-1.36676 0.43165,1.50703 0.43165,1.50701 c 2.37738,8.3002 4.43159,15.47213 6.47471,22.6053 l 0.23974,0.89017 m 12.46996,43.41657 0.23974,0.90388 c 2.37713,8.2993 4.4772,15.63138 6.90636,24.11231 l 0.43165,1.50703 0.0578,-1.64737 c 0.37318,-10.62881 0.68131,-19.40466 1.04112,-29.65254 l 0.0578,-1.64737 0.0578,-1.64737 c 0.17703,-5.04216 0.36622,-10.43036 0.52056,-14.82627 l 0.0578,-1.64736 0.0578,-1.64737 0.0578,-1.64737 0.0578,-1.64735 c 0.28813,-8.20648 0.56713,-16.15259 0.8676,-24.71047 0.28057,-7.99086 0.52429,-14.93264 0.80976,-23.06309 l 0.0578,-1.64737 -0.53659,1.47292 c -2.87885,7.90228 -5.98977,16.44156 -8.58551,23.56674 l -0.53659,1.47292 c -1.07319,2.94585 -2.14638,5.89169 -3.21957,8.83753 l -0.22641,0.69749"
       style="fill:url(#radialGradient5749);fill-opacity:1;fill-rule:nonzero;stroke:#000000;stroke-width:2.01735624;stroke-linecap:square;stroke-linejoin:bevel;stroke-opacity:1;stroke-miterlimit:4;stroke-dasharray:none" />
    <path
       sodipodi:nodetypes="cscccccccccccccccccccccccccccccccccccccccccccccccccccccccccccccccccccccccccccccccccccccccccccccccccccccccccccccccccccccccccccccccccccccccccccccccccccccccccccccccccccccccccccccccccccccccccccccccccccccccccccccc"
       inkscape:connector-curvature="0"
       id="path5751"
       d="m 474.9119,542.72676 c 0,0 0.0688,0.0902 -0.1101,0.58117 -0.17887,0.49097 -0.53659,1.47291 -0.53659,1.47291 -0.89433,2.45487 -1.78865,4.90974 -2.68298,7.36461 l -0.53659,1.47292 c -3.11682,8.55547 -5.62433,15.43854 -8.5855,23.56675 l -0.5366,1.47291 1.01512,-1.29872 c 10.60316,-13.56577 21.48621,-27.48917 30.45346,-38.96188 l 1.01512,-1.29873 1.01512,-1.29873 1.01511,-1.29873 c 3.84764,-4.92264 6.83277,-8.74177 10.15115,-12.98729 l 1.01512,-1.29873 c 6.17584,-7.90129 11.8177,-15.11949 17.25696,-22.0784 l 1.01511,-1.29873 1.01512,-1.29873 -1.29987,0.87622 -1.29988,0.87621 c -7.24681,4.88493 -12.85928,8.66816 -19.49812,13.14325 l -0.75156,0.43756 m -37.44884,25.28289 -0.79585,0.56604 c -6.93267,4.67314 -13.86532,9.34632 -20.798,14.01946 l -1.29987,0.87622 1.58463,-0.45403 c 9.87528,-2.82946 18.57584,-5.32234 26.93853,-7.71841 l 1.58461,-0.45402 1.58462,-0.45402 1.58462,-0.45403 c 5.34672,-1.53194 10.95157,-3.13784 15.84619,-4.54024 l 1.58463,-0.45403 1.58462,-0.45402 c 15.24766,-4.36876 32.91325,-9.43027 47.53858,-13.62072 l 1.58462,-0.45403 -1.56665,-0.0552 c -8.35545,-0.2944 -16.7109,-0.5888 -25.06636,-0.8832 l -1.56665,-0.0552 c -3.13329,-0.1104 -6.26659,-0.2208 -9.39989,-0.3312 l -0.63451,-3.7e-4 m -23.79572,-0.90517 -0.63613,0.0223 c -3.13329,-0.1104 -6.26659,-0.2208 -9.39989,-0.3312 l -1.56665,-0.0552 -1.56664,-0.0552 c -8.35546,-0.2944 -16.71091,-0.5888 -25.06637,-0.8832 8.26055,3.00855 16.5211,6.01709 24.78165,9.02564 7.76018,2.82632 15.92948,5.80163 23.23279,8.46155 l 1.54885,0.56409 1.54886,0.56411 c 5.75019,2.09427 10.08312,3.67234 15.48852,5.64102 l 1.54886,0.56411 1.54885,0.5641 c 10.11272,3.68313 20.70535,7.54103 29.4282,10.71795 l -1.23501,-0.96548 c -7.15363,-5.59244 -12.74891,-9.96664 -19.76024,-15.44782 l -0.57589,-0.57777 m -35.78234,-27.8479 -0.69221,-0.539 -1.23501,-0.96549 c -5.35174,-4.18378 -10.70346,-8.36757 -16.05519,-12.55135 l -1.23502,-0.96549 -1.23501,-0.96549 -1.23502,-0.96549 0.92148,1.36676 0.92147,1.36677 c 5.07469,7.52686 9.5579,14.17658 14.74364,21.86818 l 0.92147,1.36676 0.92148,1.36677 0.92148,1.36676 c 2.84737,4.2233 5.83589,8.65597 8.29329,12.30085 l 0.92148,1.36676 0.92147,1.36676 0.92148,1.36677 0.92148,1.36675 c 8.84102,13.11323 17.25194,25.58862 25.80136,38.26933 l 0.92147,1.36676 0.92148,1.36676 -0.43165,-1.50702 -0.43165,-1.50702 c -2.38861,-8.33937 -4.4369,-15.49067 -6.47471,-22.6053 l -0.43165,-1.50702 c -0.8633,-3.01404 -1.72659,-6.02808 -2.58989,-9.04212 l -0.19901,-0.49896 m -6.54987,-22.92882 -0.15749,-0.68455 -0.43165,-1.50702 c -0.71941,-2.5117 -1.43883,-5.0234 -2.15823,-7.5351 l -0.43165,-1.50702 c -2.40911,-8.41092 -4.89833,-17.10168 -6.90636,-24.11232 l -0.43164,-1.50701 -0.0578,1.64736 c -0.27152,7.73308 -0.56554,16.10724 -0.80976,23.0631 -0.28998,8.25892 -0.60108,17.1194 -0.8676,24.71046 l -0.0578,1.64736 -0.0578,1.64736 -0.0578,1.64737 -0.0578,1.64736 c -0.19271,5.48872 -0.33796,9.62554 -0.52056,14.82628 l -0.0578,1.64736 -0.0578,1.64737 c -0.35672,10.15995 -0.74088,21.10116 -1.04112,29.65254 l -0.0578,1.64737 0.53659,-1.47292 c 2.87886,-7.90227 5.98973,-16.44156 8.58551,-23.56674 l 0.31726,-0.89719 m 15.46328,-42.53034 0.31727,-0.76011 c 2.9555,-8.11269 5.19946,-14.27222 8.0489,-22.09381 l 0.5366,-1.47293 0.53659,-1.47292 -1.01512,1.29873 -1.01511,1.29873 c -6.7086,8.58294 -13.1739,16.85455 -19.28719,24.67586 -3.07981,3.94025 -6.3165,8.08128 -9.13604,11.68856 l -1.01511,1.29873 -1.01512,1.29873 -1.01512,1.29873 c -10.56072,13.51138 -20.93767,26.78737 -30.45346,38.96188 l -1.01512,1.29872 1.29988,-0.87621 c 7.47661,-5.03981 14.21225,-9.58015 20.79799,-14.01946 l 1.29988,-0.87622 c 2.59975,-1.75244 5.1995,-3.50487 7.79925,-5.2573 l 0.50482,-0.35532 m 19.76874,-13.29195 0.52444,-0.37219 c 2.59975,-1.75243 5.1995,-3.50486 7.79925,-5.2573 l 1.29987,-0.87621 c 7.13396,-4.80883 14.6347,-9.86493 20.798,-14.01946 l 1.29988,-0.87622 -1.58463,0.45402 c -15.77312,4.51932 -31.71303,9.08639 -47.53858,13.62073 l -1.58462,0.45402 -1.58462,0.45403 c -6.07661,1.74106 -10.2282,2.93058 -15.8462,4.54024 l -1.58461,0.45402 -1.58463,0.45403 -1.58461,0.45402 c -9.14539,2.62033 -18.6273,5.33708 -26.93853,7.71841 l -1.58462,0.45403 1.56664,0.0552 c 9.34412,0.32923 16.31017,0.57467 25.06637,0.88319 l 0.88815,0.0358 m 45.16498,1.60376 0.94631,0.0164 1.56665,0.0552 c 8.35546,0.29439 16.7109,0.58879 25.06636,0.88319 -10.88084,-3.96287 -19.58221,-7.13197 -29.42821,-10.71795 l -1.54884,-0.5641 -1.54886,-0.5641 c -5.27771,-1.92219 -10.89778,-3.96906 -15.48853,-5.64103 l -1.54885,-0.56411 -1.54885,-0.5641 c -7.97064,-2.90296 -14.96245,-5.44943 -23.2328,-8.46154 -8.26055,-3.00855 -16.5211,-6.0171 -24.78164,-9.02565 7.78524,6.08621 13.91099,10.87512 20.99524,16.41331 l 1.23502,0.96549 1.23501,0.96549 c 2.15192,1.68229 4.03242,3.15239 6.17508,4.82744 l 0.30449,0.22883 m 18.93353,14.7744 0.52221,0.44459 c 2.47002,1.93099 4.94007,3.86196 7.41009,5.79294 l 1.23502,0.96549 c 5.7634,4.50561 11.5268,9.01123 17.2902,13.51683 l 1.23501,0.9655 1.23502,0.96549 1.23501,0.96548 -0.92148,-1.36675 -0.92147,-1.36677 c -9.07761,-13.46414 -17.10599,-25.37217 -25.80135,-38.26932 l -0.92148,-1.36676 -0.92148,-1.36677 -0.92147,-1.36676 -0.92148,-1.36676 c -3.0345,-4.50086 -5.55091,-8.23325 -8.29329,-12.30085 l -0.92148,-1.36676 -0.92148,-1.36677 -0.92147,-1.36676 c -4.94377,-7.33272 -10.28603,-15.25654 -14.74364,-21.86818 l -0.92147,-1.36677 -0.92148,-1.36676 0.43165,1.50703 0.43165,1.50701 c 2.37738,8.3002 4.43159,15.47213 6.47471,22.6053 l 0.23974,0.89017 m 12.46996,43.41657 0.23974,0.90388 c 2.37713,8.2993 4.4772,15.63138 6.90636,24.11231 l 0.43165,1.50703 0.0578,-1.64737 c 0.37318,-10.62881 0.68131,-19.40466 1.04112,-29.65254 l 0.0578,-1.64737 0.0578,-1.64737 c 0.17703,-5.04216 0.36622,-10.43036 0.52056,-14.82627 l 0.0578,-1.64736 0.0578,-1.64737 0.0578,-1.64737 0.0578,-1.64735 c 0.28813,-8.20648 0.56713,-16.15259 0.8676,-24.71047 0.28057,-7.99086 0.52429,-14.93264 0.80976,-23.06309 l 0.0578,-1.64737 -0.53659,1.47292 c -2.87885,7.90228 -5.98977,16.44156 -8.58551,23.56674 l -0.53659,1.47292 c -1.07319,2.94585 -2.14638,5.89169 -3.21957,8.83753 l -0.22641,0.69749"
       style="fill:url(#radialGradient5753);fill-opacity:1;fill-rule:nonzero;stroke:#000000;stroke-width:2.01735624;stroke-linecap:square;stroke-linejoin:bevel;stroke-opacity:1;stroke-miterlimit:4;stroke-dasharray:none" />
  </g>
  <g
     inkscape:groupmode="layer"
     id="layer7"
     inkscape:label="texte"
     style="display:inline;fill:#000000;fill-opacity:1">
    <path
       style="fill:#000000;stroke:#000000;stroke-opacity:1;fill-opacity:1"
       d="m 735.23,804.62 c 1.84,4.1 3.2,7.02 4.09,8.78 2.23,4.42 4.98,7.44 8.27,9.06 3.3,1.62 6.98,1.92 11.21,0.76 0.5,-4.23 1.68,-8.9 3.35,-13.9 0,0 -0.16,-0.28 -0.16,-0.28 -3.48,-0.11 -6.7,-0.34 -9.54,-0.75 0,0 -6.15,-12.66 -6.15,-12.66 0,0 -15.27,-32.42 -15.27,-32.42 0,0 -4.33,4.51 -4.33,4.51 0,0 -6.31,5.92 -6.31,5.92 8.12,16.69 13.06,27.02 14.84,30.98 z"
       id="path5356"
       inkscape:connector-curvature="0" />
    <path
       style="fill:#000000;stroke:#000000;stroke-opacity:1;fill-opacity:1"
       d="m 690.05,815.22 c -0.87,3.02 -0.53,6.21 0.79,9.65 1.69,4.35 4.24,6.85 8.13,7.34 3.88,0.58 8.37,-0.17 13.89,-2.5 0.21,-0.09 1.06,-0.48 2.55,-1.19 0.61,-0.3 1.13,-0.54 1.57,-0.73 2,-0.86 4.01,-0.98 6.31,-0.46 -1.71,2.83 -3.98,4.83 -7.1,6.17 -5.6,2.39 -10.96,3.37 -16.48,3.17 -0.14,3.06 -0.14,5.59 0.04,7.58 5.5,0.92 11.41,0.13 17.75,-2.53 3.82,-1.65 7.1,-3.7 9.92,-6.25 2.7,-2.52 4.56,-4.86 5.32,-6.84 0.74,-1.93 1.12,-4.21 1.04,-6.78 -0.16,-2.52 -0.79,-4.89 -1.85,-7.11 -0.98,-2.07 -2.09,-3.48 -3.32,-4.26 -1.25,-0.78 -2.74,-0.98 -4.41,-0.65 -1.7,0.35 -4.55,1.45 -8.12,3.07 -7.29,3.17 -12.54,2.91 -15.49,-0.88 9.75,-3.13 15.94,-4.54 19.68,-4.63 -0.72,-1.61 -1.32,-4.31 -1.81,-8.1 -0.32,-2.32 -0.49,-3.55 -0.51,-3.68 -4.84,2.26 -9.2,4.04 -14,5.74 -4.87,1.68 -6.89,2.33 -7.03,2.39 -3.28,4.51 -5.88,8.44 -6.87,11.48 z"
       id="path5358"
       inkscape:connector-curvature="0" />
    <path
       id="path5354"
       style="fill:#000000;stroke:#000000;stroke-opacity:1;fill-opacity:1"
       d="m 778.06,781.43 c 0.09,2.49 0.05,5.25 -0.05,8.22 0.02,2.89 -0.16,5.58 -0.64,8.17 0,0 -10.54,-15.83 -10.54,-15.83 4.58,-1.53 8.36,-1.77 11.23,-0.56 z m -20.66,6.45 c 0.16,3.63 1.26,7.6 3.59,11.73 1.61,2.85 3.65,5.92 6.12,9.19 1.61,2.07 2.76,3.63 3.47,4.64 2.1,-0.11 5.01,-0.68 8.81,-1.72 1.44,-6.81 2.41,-12.13 2.86,-15.9 0.67,-3.92 1.01,-6.42 0.99,-7.5 4.27,6.83 7.38,12.36 9.33,16.57 5.52,-6.24 9.23,-10.38 11.55,-12.52 -1.55,-1.71 -2.8,-3.28 -3.75,-4.7 0,0 -7.83,-12.14 -7.83,-12.14 -2.06,-3.08 -3.99,-5.32 -5.78,-6.71 -1.8,-1.44 -3.62,-2.27 -5.38,-2.55 -1.58,-0.39 -3.03,-0.51 -4.54,-0.2 -1.44,0.35 -3.99,1.15 -8.68,3.04 -4.43,1.56 -6.97,2.42 -7.35,2.5 -2.29,7.13 -3.69,12.7 -3.41,16.27 z" />
    <path
       style="fill:#000000;stroke:#000000;stroke-opacity:1;fill-opacity:1"
       d="m 629.68,843.35 c 0.89,4.41 1.57,7.57 2.04,9.48 1.2,4.8 3.21,8.36 5.88,10.71 2.73,2.31 6.47,3.32 10.99,3.1 1.43,-4.01 3.46,-8.26 5.92,-12.72 0,0 -0.09,-0.32 -0.09,-0.32 -3.21,-0.88 -6.04,-1.88 -8.65,-2.94 0,0 -3.14,-13.72 -3.14,-13.72 0,0 -7.77,-34.98 -7.77,-34.98 0,0 -5.29,3.44 -5.29,3.44 0,0 -7.5,4.46 -7.5,4.46 4.22,18.07 6.75,29.24 7.61,33.49 z"
       id="path5364"
       inkscape:connector-curvature="0" />
    <path
       id="path5360"
       style="fill:#000000;stroke:#000000;stroke-opacity:1;fill-opacity:1"
       d="m 654.82,833.64 c 0,0 2.17,8.03 2.17,8.03 1.84,6.26 3.57,10.36 5.18,12.32 1.61,2.01 3.52,3.34 5.78,3.96 2.16,0.64 5.38,0.25 9.66,-1.15 7.78,-2.65 11.59,-9.34 11.15,-19.81 0,0 -0.32,0.12 -0.32,0.12 -1.74,3.46 -4.28,5.79 -7.37,6.9 -2.65,0.91 -5.89,-0.09 -9.99,-2.96 1.13,-0.37 2.05,-0.67 2.71,-0.89 1.73,-0.58 3.67,-1.45 5.45,-2.48 1.78,-1.05 4.48,-3.44 7.69,-7.04 -0.88,-3.34 -1.49,-5.88 -1.82,-7.62 -0.32,-1.46 -0.64,-2.63 -0.97,-3.51 -0.74,-1.99 -2.09,-3.58 -4.04,-4.79 -2.23,-1.05 -5.37,-1.03 -9.03,-0.08 0,0 -11.29,2.75 -11.29,2.75 0,0 -6.07,11.66 -6.07,11.66 0,0 1.11,4.59 1.11,4.59 z m 16.7,-8.22 c 1.82,0.86 3.06,2.66 3.98,5.29 -0.03,-0.09 0.28,0.89 0.94,2.95 -2.73,1.15 -5.12,2.05 -7.78,2.92 0,0 -2.55,-11.79 -2.55,-11.79 2.09,-0.59 3.79,-0.34 5.41,0.63 z" />
    <path
       style="fill:#000000;stroke:#000000;stroke-opacity:1;fill-opacity:1"
       d="m 792.12,755.44 c -0.32,0.58 -0.63,1.13 -0.94,1.62 -0.32,0.48 -0.64,0.94 -0.99,1.4 -0.36,0.47 -0.65,0.85 -0.84,1.13 2.72,3.67 5.72,7.86 8.98,12.58 0,0 6.47,9.36 6.47,9.36 0.31,0.45 0.87,1.2 1.71,2.26 0,0 0.63,0.91 0.63,0.91 0.22,0.32 0.87,1.31 1.96,2.98 0.29,0.47 0.91,1.39 1.85,2.76 3.6,-4.23 7.61,-8.05 11.57,-11.1 0,0 -16.73,-22.4 -16.73,-22.4 0,0 0.26,-2.68 0.26,-2.68 0,0 0.09,-1.27 0.09,-1.27 0.06,-1.33 0.08,-2.08 0.06,-2.22 4.66,2.39 9.06,5.93 12.86,10.9 3.16,4.13 6.77,10.4 10.89,18.78 0.87,-1.51 1.8,-3.79 2.75,-6.81 0,0 0.51,-1.57 0.51,-1.57 0,0 2.92,-9.77 2.92,-9.77 -2,-2.56 -4.21,-5.76 -6.65,-9.59 -2.25,-3.64 -4.35,-6.67 -6.32,-9.09 -1.66,-2.03 -2.97,-3.38 -3.93,-4.05 -1.05,-0.76 -2.24,-1.4 -3.59,-1.88 -1.38,-0.51 -2.72,-0.66 -4.31,-0.2 -1.36,0.27 -3.06,0.9 -5.66,2.36 0,0 -1.69,4.57 -1.69,4.57 -0.24,0.83 -0.41,1.56 -0.61,2.26 -0.63,2.21 -1.34,3.96 -1.56,4.85 0,0 -3.55,-4.84 -3.55,-4.84 0,0 -2.37,3.43 -2.37,3.43 0,0 -3.77,5.32 -3.77,5.32 z"
       id="path5350"
       inkscape:connector-curvature="0" />
    <path
       id="path5348"
       style="fill:#000000;stroke:#000000;stroke-opacity:1;fill-opacity:1"
       d="m 844.96,724.21 c 0,0 4.55,14.12 4.55,14.12 0.17,0.6 0.35,1.25 0.54,1.96 0.16,0.71 0.29,1.3 0.4,1.74 -0.01,0.14 -0.02,0.31 -0.02,0.51 0,0.2 -0.01,0.41 -0.01,0.63 0,0 -14.13,-15.54 -14.13,-15.54 3.04,-1.75 5.94,-2.93 8.67,-3.42 z m 24.18,3.53 c -2.65,-2.39 -5.27,-4.94 -7.87,-7.63 -10.58,-10.94 -20.08,-21.39 -28.6,-31.28 -0.65,1.28 -3.15,5.19 -8.54,12.59 4.15,4.53 8.52,9.42 13.09,14.69 -3.34,1.36 -5.43,2.32 -6.78,3.35 -1.02,3.54 -1.61,7.25 -1.43,10.8 0.1,3.58 0.53,6.74 1.5,9.3 0.93,2.52 2.56,5.21 4.88,8.06 3.8,4.64 7.57,8.64 11.33,11.97 2.17,-0.55 4.87,-1.55 7.89,-2.83 -0.21,-2.76 -0.32,-6.77 -0.37,-12.02 -0.34,-4.68 -0.71,-8.24 -1.42,-10.38 3.93,3.32 7.64,6.87 11.12,10.67 0.93,1.02 1.74,1.93 2.42,2.71 0,0 10.21,-13.85 10.21,-13.85 -2.3,-1.72 -4.78,-3.77 -7.43,-6.15 z" />
    <path
       style="fill:#000000;stroke:#000000;stroke-opacity:1;fill-opacity:1"
       d="m 602.61,849.32 c 0.7,4.44 1.24,7.62 1.61,9.56 0.95,4.85 2.68,8.52 5.35,10.97 2.75,2.42 6.43,3.65 10.75,3.7 1.72,-3.95 3.89,-8.08 6.84,-12.46 0,0 -0.07,-0.32 -0.07,-0.32 -3.35,-1.02 -6.25,-2.12 -8.68,-3.34 0,0 -2.42,-13.86 -2.42,-13.86 0,0 -6.37,-35.25 -6.37,-35.25 0,0 -4.97,3.07 -4.97,3.07 0,0 -8.19,4.13 -8.19,4.13 3.43,18.25 5.47,29.52 6.15,33.8 z"
       id="path5366"
       inkscape:connector-curvature="0" />
    <path
       style="fill:#000000;stroke:#000000;stroke-opacity:1;fill-opacity:1"
       d="m 552.04,832.73 c -2.22,7.22 -3.03,14.27 -2.44,21.17 0.18,2.08 0.75,4.25 1.61,6.51 -5.87,4.05 -10.03,8.41 -13.01,13.11 -3.02,4.72 -4.54,9.59 -4.25,14.59 0.39,6.66 4.07,11.66 11.07,14.9 7.13,3.18 16.39,4.22 27.66,2.94 11.36,-1.54 20.13,-4.93 26.25,-10.14 0.48,-1.61 1,-3.6 1.56,-5.96 0.57,-2.35 1.06,-4.57 1.45,-6.66 0.38,-2.07 0.81,-4.82 1.29,-8.24 -5.65,5.37 -10.03,8.89 -12.9,10.52 -3.09,1.71 -6.43,2.8 -10.04,3.32 -20.24,2.5 -30.78,-1.13 -31.57,-10.29 -0.35,-4.08 1.24,-8.91 4.43,-14.47 2.31,1.61 5.21,2.88 9.01,3.74 4.03,0.87 6.88,1.21 8.84,0.95 0.35,-0.04 1.24,-0.48 2.53,-1.3 0.41,-1.26 0.83,-2.49 1.27,-3.7 1.58,-3.8 2.55,-6.42 2.87,-7.83 -5.71,0.43 -10.17,-1.03 -13.55,-4.31 -3.78,-3.23 -5.97,-7.52 -6.59,-12.88 -0.36,-3.17 -0.04,-6.05 0.97,-8.63 8.93,-0.59 19.21,3.7 29.96,13.02 0,0 -0.1,-7.16 -0.1,-7.16 0.06,-3.05 0.03,-4.94 -0.09,-5.68 -0.79,-4.51 -4.04,-8.11 -8.63,-11.02 -2.31,-1.51 -4.72,-2.61 -8.16,-3.15 -3.42,-0.54 -6.05,-0.78 -9.33,-0.52 -4.58,4.29 -8.13,10.05 -10.11,17.17 z"
       id="path5368"
       inkscape:connector-curvature="0" />
    <path
       style="fill:#000000;stroke:#000000;stroke-opacity:1;fill-opacity:1"
       d="m 523.48,830.8 c 0,0 -0.55,-11.9 -0.55,-11.9 0,0 -13.12,0.45 -13.12,0.45 0,0 0.29,11.9 0.29,11.9 0,0 2.57,13.02 2.57,13.02 0,0 9.31,-0.3 9.31,-0.3 0,0 1.5,-13.17 1.5,-13.17 z"
       id="path5370"
       inkscape:connector-curvature="0" />
    <path
       style="fill:#000000;stroke:#000000;stroke-opacity:1;fill-opacity:1"
       d="m 172.21,708.44 c -7.21,-5.57 -15.05,-8.34 -25.75,-10.15 -9.62,-1.07 -20.43,-0.43 -30.57,3.6 -10.13,3.61 -18.79,8.75 -25.43,15.96 -5.99,6.51 -8.31,14.17 -6.94,22.88 1.34,8.84 7.73,18.15 19.26,27.68 8.92,7.02 19.21,13.38 30.89,18.95 0,0 13.5,-4.43 13.5,-4.43 -2.92,-2.03 -6.04,-4.33 -9.27,-6.88 -3.33,-2.62 -6.28,-5.07 -8.87,-7.37 -2.57,-2.29 -5.02,-4.68 -7.41,-7.13 -6.94,-7.16 -12.13,-13.98 -15.47,-20.16 -3.18,-6.21 -4.75,-11.35 -4.52,-15.22 0.41,-3.76 2.08,-7.25 4.95,-10.46 5.23,-5.86 11.54,-9.44 19.59,-10.21 7.72,-1.03 14.66,0.98 22.09,7.08 4.08,3.25 8.02,7.91 11.01,13.41 -0.81,5.14 -2.19,10.43 -3.76,16.11 8.67,-6.62 15.07,-12.14 19.19,-16.56 0,0 4.19,-10.71 4.19,-10.71 -2.57,-2.82 -4.35,-4.63 -6.68,-6.39 z"
       id="C"
       inkscape:connector-curvature="0" />
    <path
       id="path5392"
       style="fill-opacity:1;fill-rule:nonzero;fill:#000000;stroke:#000000;stroke-opacity:1"
       d="m 187.52,763.99 c 0.72,2.93 -0.27,6.33 -2.81,10.3 -1.59,2.49 -3.5,4.83 -5.76,7.02 -6.13,-6.06 -6.63,-12.19 -2.22,-18.79 1.62,-2.42 3.78,-4.37 6.46,-5.88 1.96,1.9 3.49,4.4 4.33,7.35 z m 10.76,-8.31 c -2.47,-1.58 -6.27,-4.04 -10.45,-6.75 -13.31,0.35 -22.61,3.81 -27.47,10.76 -2.99,4.27 -3.45,9.18 -1,15 1.98,5.93 5.53,10.58 10.8,14.03 0.81,-0.01 1.85,-0.13 3.12,-0.36 1.39,-0.05 2.42,-0.02 3.11,0.07 4.15,0.23 7.15,0.03 9.2,-0.47 1.98,-0.33 4.3,-1.36 6.96,-3.09 2.61,-1.74 4.79,-4.02 6.51,-6.85 1.79,-2.94 2.63,-5.82 2.52,-8.63 -0.1,-2.77 -1,-5.09 -2.51,-6.86 0,0 4.85,-3.35 4.85,-3.35 -1.77,-1.08 -3.44,-2.12 -5.64,-3.5 z" />
    <path
       style="fill:#000000;stroke:#000000;stroke-opacity:1;fill-opacity:1"
       d="m 215.96,769.3 c -0.82,-0.14 -1.5,-0.22 -2.09,-0.3 -0.59,-0.09 -1.12,-0.17 -1.59,-0.24 -0.47,-0.07 -0.91,-0.16 -1.33,-0.26 -2.15,4.03 -4.68,8.51 -7.6,13.46 0,0 -5.79,9.79 -5.79,9.79 -0.27,0.47 -0.71,1.3 -1.31,2.51 0,0 -0.57,0.95 -0.57,0.95 -0.19,0.33 -0.83,1.34 -1.89,3.02 -0.31,0.46 -0.88,1.41 -1.73,2.84 5.39,1.51 10.54,3.57 14.95,5.87 0,0 13.33,-24.57 13.33,-24.57 0,0 2.66,-0.81 2.66,-0.81 0,0 1.1,-0.5 1.1,-0.5 1.26,-0.49 1.96,-0.78 2.08,-0.86 -0.04,5.34 -1.45,10.82 -4.4,16.33 -2.45,4.58 -6.67,10.46 -12.65,17.65 1.78,0.19 4.24,0.09 7.39,-0.28 0,0 1.63,-0.2 1.63,-0.2 0,0 10.15,-1.34 10.15,-1.34 1.51,-2.88 3.52,-6.21 6.06,-9.99 2.42,-3.52 4.33,-6.68 5.72,-9.47 1.18,-2.34 1.87,-4.09 2.09,-5.24 0.24,-1.29 0.26,-2.67 0.12,-4.12 -0.14,-1.48 -0.59,-2.78 -1.58,-3.99 -0.96,-1.21 -2.3,-2.52 -4.59,-4.23 0,0 -4.86,0.35 -4.86,0.35 -0.91,0.09 -1.8,0.16 -2.54,0.25 -2.31,0.34 -4.06,0.5 -5.13,0.57 0,0 2.91,-5.25 2.91,-5.25 0,0 -4,-0.65 -4,-0.65 0,0 -6.54,-1.29 -6.54,-1.29 z"
       id="path5388"
       inkscape:connector-curvature="0" />
    <path
       style="fill:#000000;stroke:#000000;stroke-opacity:1;fill-opacity:1"
       d="m 250.62,792.93 c -2.63,1.5 -4.76,3.88 -6.41,7.18 -2.08,4.17 -2.19,7.77 -0.1,10.87 1.86,3.07 5.85,6.01 11.42,8.6 0.18,0.08 0.98,0.4 2.5,1.02 0.56,0.22 1.03,0.41 1.42,0.59 1.9,0.83 3.59,2.32 4.84,4.4 -3.4,0.58 -6.5,0.26 -9.4,-1.04 -5.52,-2.54 -10.29,-5.99 -13.56,-10.01 -2.3,1.99 -4.09,3.74 -5.43,5.22 2.87,4.59 7.51,8.37 13.9,11.34 3.65,1.65 7.34,2.61 11.28,3.04 3.91,0.42 6.69,0.15 8.64,-0.64 1.86,-0.78 3.67,-2.08 5.5,-3.9 1.78,-1.82 3.17,-3.85 4.09,-6.14 0.85,-2.12 1.08,-3.93 0.75,-5.37 -0.29,-1.45 -1,-2.63 -2.2,-3.56 -1.35,-1 -3.68,-2.21 -7.79,-4 -7.33,-3.21 -10.4,-7.16 -9.86,-12.01 8.39,4.85 14.54,8.85 16.99,11.54 0.71,-1.61 2.21,-3.91 4.58,-6.88 1.5,-1.8 2.3,-2.75 2.37,-2.85 -4.33,-1.83 -9.43,-4.23 -13.88,-6.55 -4.03,-2.24 -6.32,-3.52 -6.5,-3.6 -6.34,0.29 -10.31,1.4 -13.15,2.75 z"
       id="path5386"
       inkscape:connector-curvature="0" />
    <path
       style="fill:#000000;stroke:#000000;stroke-opacity:1;fill-opacity:1"
       d="m 285.83,828.27 c -1.52,3.83 -2.19,6.97 -2,9.42 0.25,2.44 0.9,4.22 1.79,5.29 0.8,1.08 3.1,2.94 7.04,5.65 6.5,-1.96 11.06,-3.17 13.68,-3.63 -0.78,2.29 -1.91,4.73 -3.4,7.3 0,0 6.81,0.95 6.81,0.95 5.18,0.61 8.66,1.01 10.43,1.21 2.58,-9.35 4.48,-15.98 5.69,-19.91 2.08,-6.75 3.98,-12.43 5.71,-17.02 -4.49,-0.73 -8.3,-1.63 -12.15,-2.93 -1.01,-0.35 -2.02,-1.04 -3,-2.08 -0.59,4.27 -2.36,10.76 -5.32,19.48 -0.88,2.6 -1.49,4.34 -1.83,5.24 -1.76,1.25 -4.23,2.63 -7.67,4 -0.31,-3.03 -0.41,-5.68 -0.35,-7.97 0.01,-2.07 0.4,-4.11 1.14,-6.11 0.71,-1.92 1.71,-4.05 2.99,-6.37 1.24,-2.24 2.31,-4.27 3.22,-6.08 1.5,-3.03 2.58,-5 3.25,-5.9 -7.66,-0.31 -13.06,-0.93 -16.37,-1.93 -3.45,6.74 -6.68,13.86 -9.66,21.39 z"
       id="path5384"
       inkscape:connector-curvature="0" />
    <path
       style="fill:#000000;stroke:#000000;stroke-opacity:1;fill-opacity:1"
       d="m 335.94,835.3 c -1.45,4.26 -2.45,7.32 -3.02,9.21 -1.41,4.74 -1.59,8.79 -0.33,12.21 1.15,3.38 3.74,6.12 7.82,8.23 3.37,-2.68 7.23,-5.32 11.62,-7.89 0,0 0.09,-0.31 0.09,-0.31 -2.21,-2.39 -4.26,-4.72 -5.86,-6.94 0,0 4.35,-13.39 4.35,-13.39 0,0 10.89,-34.12 10.89,-34.12 0,0 -6.61,0.18 -6.61,0.18 0,0 -8.66,0.05 -8.66,0.05 -5.46,17.74 -8.9,28.66 -10.29,32.77 z"
       id="path5382"
       inkscape:connector-curvature="0" />
    <path
       id="path5378"
       style="fill:#000000;stroke:#000000;stroke-opacity:1;fill-opacity:1"
       d="m 363.96,838.35 c -2.71,2.67 -4.63,6.31 -5.78,10.91 -0.8,3.18 -1.42,6.81 -1.87,10.88 -0.25,2.61 -0.47,4.54 -0.63,5.77 1.76,1.41 4.22,3.02 7.55,4.85 5.7,-3.99 10.29,-7.13 13.5,-9.45 2.95,-2.4 4.81,-4 5.54,-4.8 -1.63,7.89 -3.2,14.04 -4.7,18.43 8.34,-0.72 14.11,-1.04 17.07,-1 0.07,-2.31 0.27,-4.31 0.57,-5.99 0,0 2.77,-14.17 2.77,-14.17 0.65,-3.65 0.85,-6.6 0.65,-8.82 -0.17,-2.26 -0.7,-4.09 -1.6,-5.5 -1.16,-1.45 -2.46,-2.61 -3.9,-3.46 -1.49,-0.78 -4.18,-2 -8.2,-3.73 -4.52,-2.03 -7.27,-3.23 -7.72,-3.46 -6.4,3.66 -10.69,6.86 -13.25,9.54 z m 19.33,9.61 c -1.54,1.88 -3.28,3.88 -5.29,5.97 -2.24,2.02 -4.45,3.8 -6.62,5.34 0,0 3.05,-18.79 3.05,-18.79 5.11,2.22 7.83,4.66 8.86,7.48 z" />
    <path
       style="fill:#000000;stroke:#000000;stroke-opacity:1;fill-opacity:1"
       d="m 410.32,837.99 c 0,0 -0.16,0.95 -0.16,0.95 0,0 -6.45,7.81 -6.45,7.81 1.77,-0.04 3.44,0.06 4.92,0.27 -0.28,1.34 -0.97,3.91 -2.05,7.71 -1.08,3.68 -1.71,6.17 -1.93,7.49 -1.3,7.93 3.05,14.2 12.81,18.58 0,0 9.73,-11.57 9.73,-11.57 -2.73,-1.3 -4.78,-2.89 -5.84,-4.71 -1.1,-1.85 -1.45,-4.18 -1.07,-6.99 0.24,-1.73 0.79,-4.96 1.67,-9.69 3.83,0.36 6.52,0.48 8.33,0.37 0.36,-0.88 1.3,-3.84 2.8,-8.86 -0.71,0 -2.03,-0.11 -3.68,-0.32 -2.77,-0.37 -4.81,-0.7 -5.83,-0.93 0.55,-2.36 0.9,-4.06 1.04,-5.1 0.08,-0.57 0.14,-1.12 0.18,-1.64 -2.3,0.01 -5.11,0.03 -9.09,-0.08 -2.27,-0.1 -3.84,-0.2 -4.24,-0.2 0,0 -0.6,3.89 -0.6,3.89 0,0 -0.54,3.02 -0.54,3.02 z"
       id="path5376"
       inkscape:connector-curvature="0" />
    <path
       id="path5372"
       style="fill:#000000;stroke:#000000;stroke-opacity:1;fill-opacity:1"
       d="m 503.25,873.74 c -0.28,-3.56 -0.42,-7.21 -0.43,-10.95 -0.04,-15.22 0.51,-29.34 1.45,-42.36 -1.83,0.46 -7.7,1.59 -15.13,3.26 -0.15,6.13 -0.44,12.69 -0.87,19.65 -3.9,-1.32 -6.79,-2.06 -8.31,-2.21 -2.75,1.9 -5.22,4.2 -7.71,6.87 -2.81,2.66 -4.84,5.25 -6.09,7.77 -1.13,2.49 -1.76,5.57 -1.97,9.24 -0.34,5.99 -0.27,11.48 0.26,16.47 2.17,1.09 4.91,2.22 8.14,3.39 1.63,-2.15 4.22,-5.15 7.5,-9.03 3.28,-3.65 5.51,-6.49 6.62,-8.53 0.65,5.11 0.91,10.25 0.78,15.4 -0.03,1.38 -0.08,2.59 -0.14,3.63 0,0 17.04,-3.01 17.04,-3.01 -0.46,-2.84 -0.85,-6.03 -1.14,-9.59 z M 488.3,854.55 c 0,0 -7.31,13.37 -7.31,13.37 -0.29,0.55 -0.61,1.16 -0.96,1.8 -0.35,0.64 -0.62,1.16 -0.82,1.56 -0.08,0.09 -0.19,0.22 -0.31,0.37 -0.13,0.14 -0.26,0.29 -0.39,0.45 0,0 0.35,-21 0.35,-21 3.27,0.76 6.61,1.91 9.44,3.45 z" />
    <path
       id="path5342"
       style="fill:#000000;stroke:#000000;stroke-opacity:1;fill-opacity:1"
       d="m 863.02,709.47 c 0,0 5.68,6.07 5.68,6.07 4.59,4.64 8.09,7.4 10.5,8.3 2.37,1.03 4.66,1.33 6.9,0.85 2.27,-0.51 4.81,-2.26 7.92,-5.53 5.72,-6.12 5.75,-13.63 0.42,-22.68 0,0 -0.26,0.29 -0.26,0.29 0.11,3.89 -0.9,7.03 -3.07,9.4 -1.85,2.02 -5.26,2.71 -10.33,2.25 0.82,-0.87 1.51,-1.6 2.06,-2.18 1.38,-1.45 2.53,-2.97 3.73,-4.84 1.07,-1.74 2.07,-4.88 3.3,-9.7 -2.32,-2.58 -4.01,-4.58 -5.08,-6 -0.93,-1.18 -1.75,-2.08 -2.45,-2.7 -1.59,-1.41 -3.65,-2.04 -6.2,-1.9 -2.45,0.15 -5.15,1.6 -7.62,3.79 0,0 -8.93,8.09 -8.93,8.09 0,0 0.32,12.93 0.32,12.93 0,0 3.11,3.56 3.11,3.56 z m 11.01,-15.29 c 1.81,0.11 3.76,1.11 5.81,2.99 -0.08,-0.06 0.67,0.65 2.22,2.16 -1.68,2.09 -3.61,4.27 -5.53,6.3 0,0 -7.85,-9.16 -7.85,-9.16 1.66,-1.62 3.49,-2.43 5.35,-2.29 z" />
  </g>
</svg>
