<?xml version="1.0" encoding="UTF-8" standalone="no"?>
<!-- Created with Inkscape (http://www.inkscape.org/) -->

<svg
   xmlns:dc="http://purl.org/dc/elements/1.1/"
   xmlns:cc="http://creativecommons.org/ns#"
   xmlns:rdf="http://www.w3.org/1999/02/22-rdf-syntax-ns#"
   xmlns:svg="http://www.w3.org/2000/svg"
   xmlns="http://www.w3.org/2000/svg"
   xmlns:sodipodi="http://sodipodi.sourceforge.net/DTD/sodipodi-0.dtd"
   xmlns:inkscape="http://www.inkscape.org/namespaces/inkscape"
   width="26.287369"
   height="14.90625"
   id="svg2"
   version="1.1"
   inkscape:version="0.48.4 r9939"
   sodipodi:docname="fleche.svg">
  <defs
     id="defs4" />
  <sodipodi:namedview
     id="base"
     pagecolor="#ffffff"
     bordercolor="#666666"
     borderopacity="1.0"
     inkscape:pageopacity="0.0"
     inkscape:pageshadow="2"
     inkscape:zoom="5.6"
     inkscape:cx="2.5086868"
     inkscape:cy="13.915007"
     inkscape:document-units="px"
     inkscape:current-layer="layer1"
     showgrid="false"
     inkscape:window-width="1280"
     inkscape:window-height="734"
     inkscape:window-x="0"
     inkscape:window-y="27"
     inkscape:window-maximized="1"
     fit-margin-top="0"
     fit-margin-left="0"
     fit-margin-right="0"
     fit-margin-bottom="0" />
  <metadata
     id="metadata7">
    <rdf:RDF>
      <cc:Work
         rdf:about="">
        <dc:format>image/svg+xml</dc:format>
        <dc:type
           rdf:resource="http://purl.org/dc/dcmitype/StillImage" />
        <dc:title></dc:title>
      </cc:Work>
    </rdf:RDF>
  </metadata>
  <g
     inkscape:label="Calque 1"
     inkscape:groupmode="layer"
     id="layer1"
     transform="translate(-159.46875,-305.6875)">
    <g
       id="g3077">
      <path
         inkscape:connector-curvature="0"
         id="path3031"
         d="m 159.47783,313.18306 c 1.0094,0.0303 2.02157,-0.0505 3.03046,0 1.05429,0.0527 2.10295,0.19055 3.15673,0.25253 6.71456,0.39498 0.2642,-0.16298 5.68211,0.37881 4.34309,0.39483 -0.55606,-0.0853 2.14657,0.25254 0.004,4.9e-4 0.3785,-3.1e-4 0.37881,0 0.0298,0.0298 0,0.0842 0,0.12627"
         style="fill:none;stroke:#000000;stroke-width:1px;stroke-linecap:butt;stroke-linejoin:miter;stroke-opacity:1" />
      <path
         inkscape:connector-curvature="0"
         id="path3033"
         d="m 159.73037,315.32963 c 0.21045,-0.0842 0.41145,-0.19756 0.63135,-0.25254 0.1225,-0.0306 0.25253,0 0.3788,0 0.0842,0 0.16836,0 0.25254,0 0.0842,0 0.17087,0.0204 0.25254,0 0.0913,-0.0228 0.16123,-0.10344 0.25254,-0.12627 0.0817,-0.0204 0.1695,0.0138 0.25254,0 0.17118,-0.0285 0.33328,-0.10172 0.50507,-0.12627 0.25,-0.0357 0.50852,0.0415 0.75762,0 0.13129,-0.0219 0.24704,-0.10744 0.3788,-0.12626 0.16667,-0.0238 0.33901,0.0277 0.50508,0 0.0928,-0.0155 0.16025,-0.10782 0.25254,-0.12627 0.12382,-0.0248 0.25426,0.0207 0.37881,0 0.13128,-0.0219 0.24751,-0.10439 0.3788,-0.12627 0.12455,-0.0208 0.25499,0.0248 0.37881,0 0.0923,-0.0185 0.16025,-0.10781 0.25254,-0.12627 0.12382,-0.0248 0.25254,0 0.37881,0 0.12626,0 0.25253,0 0.3788,0 0.33672,0 0.67344,0 1.01016,0 0.1262,0 0.52331,0.027 0.63134,0 0.12913,-0.0323 0.24968,-0.094 0.37881,-0.12627 0.0408,-0.0102 0.0842,0 0.12627,0 0.0842,0 0.16836,0 0.25254,0 0.96806,0 1.93612,0 2.90418,0 0.29463,0 0.58926,0 0.88389,0 0.0842,0 0.16836,0 0.25254,0 0.0842,0 0.17267,0.0266 0.25253,0 0.0565,-0.0188 0.0698,-0.10745 0.12627,-0.12627 0.0679,-0.0226 0.39817,0 0.50508,0"
         style="fill:none;stroke:#000000;stroke-width:1px;stroke-linecap:butt;stroke-linejoin:miter;stroke-opacity:1" />
      <path
         inkscape:connector-curvature="0"
         id="path3035"
         d="m 159.98291,314.06694 c 1.55732,0 3.11464,0 4.67196,0 0.33671,0 0.67343,0 1.01015,0 0.12627,0 0.25425,0.0208 0.3788,0 0.26258,-0.0438 0.49504,-0.20878 0.75762,-0.25254 0.12455,-0.0208 0.25254,0 0.37881,0 0.12627,0 0.25253,0 0.3788,0 0.0842,0 0.17088,0.0204 0.25254,0 0.0913,-0.0228 0.16325,-0.0965 0.25254,-0.12627 0.0399,-0.0133 0.0842,0 0.12627,0 0.0842,0 0.16836,0 0.25254,0 0.25254,0 0.50507,0 0.75761,0 0.21045,0 0.4209,0 0.63135,0 0.12627,0 0.25499,0.0248 0.3788,0 0.0923,-0.0184 0.16124,-0.10344 0.25254,-0.12627 0.0817,-0.0204 0.16836,0 0.25254,0 0.33672,0 0.67344,0 1.01015,0 0.79971,0 1.59941,0 2.39912,0 0.13357,0 0.81883,0.0217 0.88388,0 0.0565,-0.0188 0.073,-0.0996 0.12627,-0.12627 0.0376,-0.0188 0.0842,0 0.12627,0 0.0421,0 0.0842,0 0.12627,0"
         style="fill:none;stroke:#000000;stroke-width:1px;stroke-linecap:butt;stroke-linejoin:miter;stroke-opacity:1" />
      <path
         inkscape:connector-curvature="0"
         id="path3037"
         d="m 160.99306,316.84486 c 0.34879,0.0147 0.55114,-0.43853 0.88389,-0.50508 0.12381,-0.0248 0.25425,0.0208 0.3788,0 0.13129,-0.0219 0.24705,-0.10744 0.37881,-0.12627 0.16667,-0.0238 0.33672,0 0.50508,0 0.16836,0 0.33671,0 0.50507,0 0.16836,0 0.33756,0.0168 0.50508,0 0.25475,-0.0255 0.50248,-0.105 0.75761,-0.12627 0.25167,-0.021 0.50508,0 0.75762,0 0.50575,0 1.00947,0 1.51523,0 0.25253,0 0.50611,0.0229 0.75761,0 0.21374,-0.0194 0.41747,-0.10844 0.63135,-0.12626 0.29361,-0.0245 0.58925,0 0.88388,0 0.0202,0 1.29497,0 1.38896,0 0.25254,0 0.50611,0.0229 0.75761,0 0.21374,-0.0194 0.4178,-0.10492 0.63135,-0.12627 0.2094,-0.0209 0.4209,0 0.63134,0 0.25254,0 0.50508,0 0.75762,0 0.33672,0 0.67343,0 1.01015,0 0.0842,0 0.16836,0 0.25254,0 0.0842,0 0.17087,0.0204 0.25254,0 0.0913,-0.0228 0.16123,-0.10345 0.25254,-0.12627 0.11273,-0.0282 0.48518,0 0.63134,0"
         style="fill:none;stroke:#000000;stroke-width:1px;stroke-linecap:butt;stroke-linejoin:miter;stroke-opacity:1" />
      <path
         inkscape:connector-curvature="0"
         id="path3039"
         d="m 160.86679,311.03648 c 0.37296,-0.0295 0.40711,0.35558 0.63135,0.50508 0.0783,0.0522 0.16836,0.0842 0.25254,0.12627 0.44074,0.22037 0.92194,0.3494 1.38896,0.50507 0.12627,0.0421 0.25522,0.0768 0.3788,0.12627 0.0874,0.035 0.16124,0.10345 0.25254,0.12627 0.0817,0.0204 0.17087,-0.0204 0.25254,0 0.18261,0.0457 0.32247,0.20689 0.50508,0.25254 0.16333,0.0408 0.33998,-0.033 0.50507,0 0.13052,0.0261 0.25254,0.0842 0.37881,0.12627 0.16836,0 0.33802,-0.0209 0.50508,0 0.1722,0.0215 0.33259,0.1071 0.50507,0.12627 0.20916,0.0232 0.4209,0 0.63135,0 0.16836,0 0.33671,0 0.50507,0 0.16836,0 0.33841,-0.0238 0.50508,0 0.26352,0.0376 0.49659,0.20033 0.75761,0.25254 0.0825,0.0165 0.16836,0 0.25254,0 0.0842,0.0421 0.16025,0.10781 0.25254,0.12627 0.12382,0.0248 0.25499,-0.0248 0.37881,0 0.0923,0.0185 0.16025,0.10781 0.25254,0.12626 0.12381,0.0248 0.25425,-0.0207 0.3788,0 0.13129,0.0219 0.24752,0.10439 0.37881,0.12627 0.20759,0.0346 0.42718,-0.051 0.63135,0 0.0913,0.0228 0.16123,0.10345 0.25253,0.12627 0.16334,0.0408 0.34536,-0.0532 0.50508,0 0.0565,0.0188 0.0698,0.10745 0.12627,0.12627 0.11364,0.0379 0.26516,-0.0379 0.37881,0 0.7154,0.3577 -0.18823,-0.0471 0.50507,0.12627 0.0913,0.0228 0.16326,0.0965 0.25254,0.12627 0.0399,0.0133 0.0886,-0.0188 0.12627,0 0.0532,0.0266 0.0698,0.10745 0.12627,0.12627 5.7e-4,1.9e-4 0.37869,-1.2e-4 0.37881,0 0.0298,0.0298 -0.0377,0.10744 0,0.12627 0.10101,0.0505 0.27779,-0.0505 0.3788,0 0.0532,0.0266 0.073,0.0996 0.12627,0.12627 0.0377,0.0188 0.0842,0 0.12627,0 0.12627,0 0.25254,0 0.37881,0 0.0842,0 0.17268,-0.0266 0.25254,0 0.0565,0.0188 0.073,0.0996 0.12627,0.12627 0.0376,0.0188 0.0842,0 0.12627,0 0.0421,0 0.0842,0 0.12626,0"
         style="fill:none;stroke:#000000;stroke-width:1px;stroke-linecap:butt;stroke-linejoin:miter;stroke-opacity:1" />
      <path
         inkscape:connector-curvature="0"
         id="path3041"
         d="m 160.99306,318.23382 c 0.46867,-0.16838 0.88609,-0.54753 1.38896,-0.63135 0.12455,-0.0207 0.25352,0.0157 0.37881,0 0.21296,-0.0266 0.41804,-0.10256 0.63134,-0.12627 0.41833,-0.0465 0.84287,0.03 1.2627,0 0.33847,-0.0242 0.67343,-0.0842 1.01015,-0.12626 0.33672,-0.0421 0.67343,-0.0842 1.01015,-0.12627 0.33672,-0.0421 0.6774,-0.0597 1.01015,-0.12627 0.30047,-0.0601 0.58427,-0.18834 0.88389,-0.25254 0.29101,-0.0624 0.58972,-0.081 0.88388,-0.12627 0.25304,-0.0389 0.50508,-0.0842 0.75761,-0.12627 0.25254,-0.0421 0.50924,-0.0642 0.75762,-0.12627 1.41507,-0.35377 0.13374,-0.12851 1.38896,-0.50507 0.89765,-0.2693 0.34353,0.0141 1.01015,-0.25254 0.0874,-0.035 0.16325,-0.0965 0.25254,-0.12627 0.0399,-0.0133 0.0886,0.0188 0.12627,0 0.0532,-0.0266 0.0842,-0.0842 0.12627,-0.12627 0.12085,-0.12085 0.24224,-0.27638 0.3788,-0.37881 0.14763,-0.22915 0.43501,-0.23155 0.63135,-0.3788 0.0842,-0.0842 0.16836,-0.16836 0.25254,-0.25254 0.0421,0 0.0886,0.0188 0.12627,0 0.31206,-0.15603 -0.0436,-0.12627 0.25254,-0.12627"
         style="fill:none;stroke:#000000;stroke-width:1px;stroke-linecap:butt;stroke-linejoin:miter;stroke-opacity:1" />
      <path
         inkscape:connector-curvature="0"
         id="path3043"
         d="m 161.62441,315.58217 c 4.41941,0 8.83883,0 13.25825,0"
         style="fill:none;stroke:#000000;stroke-width:1px;stroke-linecap:butt;stroke-linejoin:miter;stroke-opacity:1" />
      <path
         inkscape:connector-curvature="0"
         id="path3045"
         d="m 163.01337,314.06694 c 0.92597,0 1.85194,0 2.77792,0 0.54716,0 1.09607,-0.0436 1.64149,0 0.51042,0.0408 1.00962,0.17164 1.51523,0.25254 0.54665,0.0875 1.09155,0.18908 1.6415,0.25254 0.54517,0.0629 1.09461,0.0807 1.6415,0.12627 0.46329,0.0386 0.92616,0.0822 1.38896,0.12626 0.42109,0.0401 0.84202,0.082 1.26269,0.12627 0.37904,0.0399 0.75603,0.1025 1.13642,0.12627 0.29406,0.0184 0.59001,-0.021 0.88388,0 0.29687,0.0212 0.5873,0.10156 0.88389,0.12627 1.44994,0 -0.10475,-0.051 1.13642,0.12627 1.56235,0.22319 -0.84824,-0.27519 0.75761,0.12627 0.0408,0.0102 0.0886,-0.0188 0.12627,0 0.0532,0.0266 0.073,0.0996 0.12627,0.12627 0.0574,0.0287 0.60382,-0.007 0.63135,0 0.0577,0.0144 0.073,0.0996 0.12627,0.12627 0.15883,0.0794 0.25253,-0.18135 0.25253,0.12627"
         style="fill:none;stroke:#000000;stroke-width:1px;stroke-linecap:butt;stroke-linejoin:miter;stroke-opacity:1" />
      <path
         inkscape:connector-curvature="0"
         id="path3047"
         d="m 165.91756,313.05679 c 1.64149,0 3.28299,0 4.92449,0 0.16836,0 0.33672,0 0.50508,0 0.21044,0 0.42194,-0.0209 0.63134,0 0.39636,-0.007 0.75075,0.20968 1.13642,0.25254 0.41833,0.0465 0.84389,-0.0419 1.26269,0 0.21355,0.0213 0.41805,0.10256 0.63135,0.12626 0.16733,0.0186 0.33672,0 0.50508,0 0.16835,0.0421 0.33389,0.0977 0.50507,0.12627 0.14931,0.0249 0.34868,0 0.50508,0 0.3788,0 0.75761,0 1.13642,0 0.12627,0 0.25254,0 0.37881,0 0.71552,0 1.43105,0 2.14657,0 0.22225,0 0.25254,0.10444 0.25254,-0.12627"
         style="fill:none;stroke:#000000;stroke-width:1px;stroke-linecap:butt;stroke-linejoin:miter;stroke-opacity:1" />
      <path
         inkscape:connector-curvature="0"
         id="path3049"
         d="m 167.81159,312.1729 c 0.92598,0 1.85195,0 2.77792,0 0.21045,0 0.4209,0 0.63135,0 0.21045,0 0.42218,0.0232 0.63134,0 0.17248,-0.0192 0.33288,-0.10474 0.50508,-0.12627 0.16706,-0.0209 0.33672,0 0.50507,0 0.16836,0 0.33672,0 0.50508,0 0.71553,0 1.43105,0 2.14658,0 1.97821,0 3.95643,0 5.93464,0"
         style="fill:none;stroke:#000000;stroke-width:1px;stroke-linecap:butt;stroke-linejoin:miter;stroke-opacity:1" />
      <path
         inkscape:connector-curvature="0"
         id="path3051"
         d="m 168.06413,316.21351 c 0.46299,0 0.92597,0 1.38896,0 0.0842,0 0.1692,0.0119 0.25254,0 0.21246,-0.0303 0.42019,-0.0879 0.63134,-0.12627 0.44459,-0.0808 1.36212,-0.22867 1.76777,-0.25253 0.37815,-0.0222 0.75809,0.0189 1.13642,0 0.46432,-0.0232 0.92459,-0.10416 1.38896,-0.12627 0.42042,-0.02 0.84252,0.0247 1.26269,0 0.29711,-0.0175 0.58729,-0.10156 0.88389,-0.12627 0.20972,-0.0175 0.42089,0 0.63134,0 0.37881,0 0.75762,0 1.13642,0 1.05224,0 2.10449,0 3.15673,0"
         style="fill:none;stroke:#000000;stroke-width:1px;stroke-linecap:butt;stroke-linejoin:miter;stroke-opacity:1" />
      <path
         inkscape:connector-curvature="0"
         id="path3053"
         d="m 173.99878,313.8144 c 0.39447,-0.008 0.75227,-0.19766 1.13642,-0.25254 0.125,-0.0179 0.25351,0.0157 0.37881,0 0.21295,-0.0266 0.41736,-0.10981 0.63134,-0.12627 0.33573,-0.0258 0.67402,0.0198 1.01015,0 0.38048,-0.0224 0.75625,-0.0991 1.13642,-0.12626 0.20992,-0.015 0.4209,0 0.63135,0 0.25254,0 0.50508,0 0.75761,0 0.63135,0 1.26269,0 1.89404,0"
         style="fill:none;stroke:#000000;stroke-width:1px;stroke-linecap:butt;stroke-linejoin:miter;stroke-opacity:1" />
      <path
         inkscape:connector-curvature="0"
         id="path3055"
         d="m 165.53875,312.55171 c 0.29463,-0.0421 0.58774,-0.0967 0.88388,-0.12627 0.12564,-0.0126 0.25254,0 0.37881,0 0.37881,0 0.75761,0 1.13642,0 1.05224,0 2.10449,0 3.15673,0"
         style="fill:none;stroke:#000000;stroke-width:1px;stroke-linecap:butt;stroke-linejoin:miter;stroke-opacity:1" />
      <path
         inkscape:connector-curvature="0"
         id="path3057"
         d="m 171.34713,314.31948 c 0.62952,-0.20984 0.69019,-0.25159 1.26269,-0.37881 0.2095,-0.0466 0.42429,-0.0698 0.63134,-0.12627 0.824,-0.22473 0.66479,-0.31339 1.51523,-0.37881 0.29376,-0.0226 0.59012,0.0226 0.88388,0 0.25527,-0.0196 0.50248,-0.105 0.75762,-0.12626 0.25166,-0.021 0.50507,0 0.75761,0 0.58926,0 1.17851,0 1.76777,0 1.2206,0 2.4412,0 3.6618,0"
         style="fill:none;stroke:#000000;stroke-width:1px;stroke-linecap:butt;stroke-linejoin:miter;stroke-opacity:1" />
      <path
         inkscape:connector-curvature="0"
         id="path3059"
         d="m 175.38774,306.11199 c 0.34268,0.189 0.30147,0.61241 0.50507,0.88388 0.0714,0.0952 0.17817,0.15958 0.25254,0.25254 0.0948,0.1185 0.15774,0.26031 0.25254,0.37881 0.14874,0.18592 0.36222,0.3146 0.50507,0.50507 0.11294,0.15059 0.11944,0.37198 0.25254,0.50508 0.64529,0.64528 -0.17611,-0.52944 0.50508,0.37881 0.0565,0.0753 0.0698,0.17724 0.12627,0.25254 0.0714,0.0952 0.16836,0.16835 0.25254,0.25253 0.0842,0.0842 0.16836,0.16836 0.25253,0.25254 0.0842,0.0842 0.16836,0.16836 0.25254,0.25254 0.0842,0.0842 0.1573,0.18111 0.25254,0.25254 0.0753,0.0565 0.17423,0.0741 0.25254,0.12627 0.0495,0.033 0.0698,0.10744 0.12627,0.12627 0.0799,0.0266 0.17087,-0.0204 0.25254,0 0.0913,0.0228 0.16515,0.0913 0.25253,0.12627 0.12358,0.0494 0.25976,0.0667 0.37881,0.12626 1.51629,0.75815 -0.54311,-0.19959 0.63135,0.50508 0.11413,0.0685 0.26467,0.0578 0.3788,0.12627 0.10209,0.0612 0.1573,0.18111 0.25254,0.25254 0.0753,0.0565 0.17423,0.0741 0.25254,0.12627 0.0421,0.0421 0.0842,0.0842 0.12627,0.12627 0,0.0421 -0.0298,0.0965 0,0.12626 0.4737,0.4737 0.23279,0.0799 0.63134,0.37881 0.19048,0.14286 0.3146,0.36222 0.50508,0.50508 0.0753,0.0565 0.16325,0.0965 0.25254,0.12627 0.0399,0.0133 0.0965,-0.0298 0.12627,0 0.0298,0.0298 -0.0298,0.0965 0,0.12627 0.0298,0.0298 0.0863,-0.0133 0.12627,0 0.0893,0.0298 0.16836,0.0842 0.25254,0.12627 0.0842,0.0421 0.18598,0.0597 0.25253,0.12626 0.16836,0.16836 -0.21044,0.12627 0.12627,0.12627"
         style="fill:none;stroke:#000000;stroke-width:1px;stroke-linecap:butt;stroke-linejoin:miter;stroke-opacity:1" />
      <path
         inkscape:connector-curvature="0"
         id="path3061"
         d="m 176.90296,306.74333 c 0,0.16836 -0.0277,0.33901 0,0.50508 0.0402,0.24112 0.131,0.22688 0.25254,0.37881 0.44494,0.55617 0.31681,0.51396 0.88389,1.01015 0.25059,0.21927 0.60103,0.44278 0.88388,0.63135 0.12627,0.0842 0.26222,0.15538 0.37881,0.25253 0.13718,0.11432 0.24162,0.26449 0.3788,0.37881 0.23317,0.1943 0.52061,0.31547 0.75762,0.50508 0.39148,0.31319 0.11315,0.24598 0.63134,0.50507 0.11905,0.0595 0.26468,0.0578 0.37881,0.12627 0.10208,0.0613 0.1573,0.18111 0.25254,0.25254 0.19505,0.14629 0.54735,0.23863 0.75761,0.37881 0.0991,0.066 0.15349,0.1865 0.25254,0.25254 0.0783,0.0522 0.17423,0.0741 0.25254,0.12626 0.0495,0.033 0.0698,0.10745 0.12627,0.12627 0.0799,0.0266 0.17268,-0.0266 0.25254,0 0.0565,0.0188 0.073,0.0996 0.12627,0.12627 0.0376,0.0188 0.0965,-0.0298 0.12627,0 0.16835,0.16836 -0.21045,0.12627 0.12626,0.12627"
         style="fill:none;stroke:#000000;stroke-width:1px;stroke-linecap:butt;stroke-linejoin:miter;stroke-opacity:1" />
      <path
         inkscape:connector-curvature="0"
         id="path3063"
         d="m 175.89281,309.39498 c 0.16836,0.0842 0.33672,0.16836 0.50508,0.25254 0.12627,0.0421 0.25976,0.0668 0.37881,0.12627 0.13573,0.0679 0.23932,0.19276 0.3788,0.25254 0.15951,0.0684 0.33672,0.0842 0.50508,0.12627 0.21045,0.0842 0.425,0.15874 0.63134,0.25254 0.97956,0.44525 0.51339,0.27118 1.38896,0.75761 0.16455,0.0914 0.35191,0.14313 0.50508,0.25254 0.14531,0.10379 0.23937,0.26725 0.37881,0.37881 0.0735,0.0588 0.17724,0.0698 0.25254,0.12627 0.54615,0.54615 -0.0334,0.0198 0.50507,0.3788 0.14858,0.0991 0.23595,0.27167 0.37881,0.37881 0.0753,0.0565 0.17725,0.0698 0.25254,0.12627 0.0541,0.0406 0.42852,0.4668 0.50507,0.50508 0.0377,0.0188 0.0965,-0.0298 0.12627,0 0.0298,0.0298 -0.0298,0.0965 0,0.12626 0.0298,0.0298 0.0863,-0.0133 0.12627,0 0.91462,0.30488 -0.19907,-0.0364 0.37881,0.25254 0.0377,0.0188 0.0965,-0.0298 0.12627,0 0.0298,0.0298 0.0421,0.12627 0,0.12627 -0.0421,0 0,-0.0842 0,-0.12627"
         style="fill:none;stroke:#000000;stroke-width:1px;stroke-linecap:butt;stroke-linejoin:miter;stroke-opacity:1" />
      <path
         inkscape:connector-curvature="0"
         id="path3065"
         d="m 175.76654,319.74905 c 0.029,-0.35919 0.46626,-0.38371 0.63135,-0.63135 0.0522,-0.0783 0.0698,-0.17724 0.12627,-0.25254 0.0714,-0.0952 0.1573,-0.18111 0.25254,-0.25253 0.0753,-0.0565 0.18598,-0.0597 0.25253,-0.12627 0.0665,-0.0666 0.0597,-0.18599 0.12627,-0.25254 0.008,-0.008 0.48156,-0.23686 0.50508,-0.25254 0.0495,-0.033 0.0767,-0.0933 0.12627,-0.12627 0.0783,-0.0522 0.17183,-0.0779 0.25254,-0.12627 0.38938,-0.23363 0.74221,-0.53235 1.13642,-0.75761 1.83925,-1.051 -0.53273,0.32949 0.88388,-0.37881 0.0532,-0.0266 0.0767,-0.0932 0.12627,-0.12627 0.0783,-0.0522 0.18599,-0.0597 0.25254,-0.12627 0.0298,-0.0298 -0.0188,-0.0886 0,-0.12627 0.0306,-0.0612 0.60411,-0.60955 0.63134,-0.63134 0.11851,-0.0948 0.24308,-0.18467 0.37881,-0.25254 0.41069,-0.20534 0.30035,-0.0319 0.63135,-0.25254 0.099,-0.066 0.14606,-0.1993 0.25253,-0.25254 0.0377,-0.0188 0.0965,0.0298 0.12627,0 0.0298,-0.0298 -0.0188,-0.0886 0,-0.12626 0.0266,-0.0532 0.0842,-0.0842 0.12627,-0.12627"
         style="fill:none;stroke:#000000;stroke-width:1px;stroke-linecap:butt;stroke-linejoin:miter;stroke-opacity:1" />
      <path
         inkscape:connector-curvature="0"
         id="path3067"
         d="m 176.7767,320.38039 c 0.0842,-0.16836 0.14313,-0.3519 0.25253,-0.50507 0.1038,-0.14531 0.25254,-0.25254 0.37881,-0.37881 0.3589,-0.3589 0.23234,-0.25615 0.75762,-0.63135 0.24697,-0.17641 0.52061,-0.31547 0.75761,-0.50507 0.18592,-0.14874 0.33672,-0.33672 0.50508,-0.50508 0.0842,-0.0842 0.15045,-0.19129 0.25253,-0.25254 0.27103,-0.0903 0.39911,-0.11319 0.63135,-0.25253 0.58038,-0.34823 0.18731,-0.19549 0.88388,-0.50508 0.20713,-0.0921 0.42422,-0.16048 0.63135,-0.25254 0.17201,-0.0764 0.33206,-0.17839 0.50507,-0.25254 0.28748,-0.1232 0.38748,-0.09 0.63135,-0.25254 0.0991,-0.066 0.14606,-0.19929 0.25254,-0.25253 0.0376,-0.0188 0.0965,0.0298 0.12627,0 0.0298,-0.0298 -0.0323,-0.0993 0,-0.12627 0.23316,-0.19431 0.49735,-0.34892 0.75761,-0.50508 0.24211,-0.14526 0.52269,-0.22219 0.75762,-0.37881 0.25014,0.0126 0.0597,-0.18598 0.12627,-0.25253 0.0298,-0.0298 0.0965,0.0298 0.12626,0 0.0298,-0.0298 -0.0298,-0.0965 0,-0.12627 0.0298,-0.0298 0.0965,0.0298 0.12627,0 0.0298,-0.0298 0,-0.0842 0,-0.12627 0,-0.0421 0,-0.0842 0,-0.12627"
         style="fill:none;stroke:#000000;stroke-width:1px;stroke-linecap:butt;stroke-linejoin:miter;stroke-opacity:1" />
      <path
         inkscape:connector-curvature="0"
         id="path3069"
         d="m 175.64027,318.61263 c 0.96096,-0.19219 0.3388,0.0267 1.13643,-0.50508 0.2042,-0.13614 0.42089,-0.25254 0.63134,-0.37881 0.95613,-0.57367 0.33683,-0.16377 1.26269,-0.88388 0.16612,-0.1292 0.33383,-0.25649 0.50508,-0.37881 0.12349,-0.0882 0.26222,-0.15538 0.37881,-0.25254 0.13718,-0.11431 0.23936,-0.26725 0.3788,-0.3788 0.0735,-0.0588 0.17725,-0.0698 0.25254,-0.12627 0.14286,-0.10715 0.23023,-0.27976 0.37881,-0.37881 0.0783,-0.0522 0.18599,-0.0597 0.25254,-0.12627 0.0298,-0.0298 -0.0188,-0.0886 0,-0.12627 0.0303,-0.0606 0.22224,-0.19194 0.25253,-0.25254 0.0188,-0.0376 -0.0188,-0.0886 0,-0.12626 0.0266,-0.0532 0.0996,-0.073 0.12627,-0.12627 0.0188,-0.0376 -0.0298,-0.0965 0,-0.12627 0.0298,-0.0298 0.0965,0.0298 0.12627,0 0.0258,-0.0258 -0.025,-0.32875 0,-0.37881 0.0266,-0.0532 0.0996,-0.073 0.12627,-0.12627 0.0188,-0.0376 -0.0188,-0.0886 0,-0.12627 0.0266,-0.0532 0.0997,-0.073 0.12627,-0.12627 0.0377,-0.0753 -0.0376,-0.17724 0,-0.25254 0.0758,-0.15152 0.30305,-0.22728 0.37881,-0.3788 0.0188,-0.0376 -0.0188,-0.0886 0,-0.12627 0.0168,-0.0337 0.23571,-0.21889 0.25254,-0.25254 0.0188,-0.0376 -0.0298,-0.0965 0,-0.12627 0.0298,-0.0298 0.0842,0 0.12626,0"
         style="fill:none;stroke:#000000;stroke-width:1px;stroke-linecap:butt;stroke-linejoin:miter;stroke-opacity:1" />
      <path
         inkscape:connector-curvature="0"
         id="path3071"
         d="m 182.58507,315.20336 c 0.0842,-0.16836 0.1557,-0.34367 0.25254,-0.50507 0.16503,-0.27505 0.14359,0.057 0.25254,-0.37881 0.0306,-0.1225 0,-0.25254 0,-0.37881 0,-0.25254 0,-0.50508 0,-0.75761 0,-0.0421 0,-0.0842 0,-0.12627 0,-0.0421 -0.0188,-0.0886 0,-0.12627 0.0266,-0.0532 0.0996,-0.073 0.12627,-0.12627 0.0187,-0.0375 0,-0.63548 0,-0.75762 0,-0.0421 0.0298,-0.0965 0,-0.12626 -0.005,-0.005 -0.45871,0 -0.50508,0"
         style="fill:none;stroke:#000000;stroke-width:1px;stroke-linecap:butt;stroke-linejoin:miter;stroke-opacity:1" />
      <path
         inkscape:connector-curvature="0"
         id="path3073"
         d="m 185.23672,314.31948 c 0,-0.33672 0,-0.67344 0,-1.01015 0,-0.0421 0.0298,-0.0965 0,-0.12627 -0.0298,-0.0298 -0.0863,0.0133 -0.12627,0 -0.0893,-0.0298 -0.17423,-0.0741 -0.25253,-0.12627 -0.0495,-0.033 -0.0698,-0.10745 -0.12627,-0.12627 -0.0799,-0.0266 -0.16836,0 -0.25254,0 -0.0421,0 -0.0886,0.0188 -0.12627,0 -0.0532,-0.0266 -0.073,-0.0996 -0.12627,-0.12627 -0.0327,-0.0163 -0.66811,0 -0.75761,0"
         style="fill:none;stroke:#000000;stroke-width:1px;stroke-linecap:butt;stroke-linejoin:miter;stroke-opacity:1" />
      <path
         inkscape:connector-curvature="0"
         id="path3075"
         d="m 181.70119,314.06694 c -0.21045,0.0421 -0.42314,0.0742 -0.63135,0.12627 -0.97582,0.24396 0.38608,0.0198 -1.01015,0.25254 -0.6689,0.11148 -1.64219,0.22512 -2.27284,0.25254 -0.5046,0.0219 -1.01015,0 -1.51523,0 -1.26269,0 -2.52538,0 -3.78807,0"
         style="fill:none;stroke:#000000;stroke-width:1px;stroke-linecap:butt;stroke-linejoin:miter;stroke-opacity:1" />
    </g>
  </g>
</svg>
